<mxfile host="app.diagrams.net" modified="2024-04-23T05:54:08.130Z" agent="Mozilla/5.0 (Macintosh; Intel Mac OS X 10_15_7) AppleWebKit/537.36 (KHTML, like Gecko) Chrome/124.0.0.0 Safari/537.36" etag="vk93uB3bvkD7t7fMdobE" version="24.2.8" type="github">
  <diagram name="第 1 页" id="7PMANIRwgi0X98KHPVjI">
    <mxGraphModel dx="2074" dy="2315" grid="1" gridSize="10" guides="1" tooltips="1" connect="1" arrows="1" fold="1" page="1" pageScale="1" pageWidth="827" pageHeight="1169" math="0" shadow="0">
      <root>
        <mxCell id="0" />
        <mxCell id="1" parent="0" />
        <mxCell id="5NBlNRbaQXi-0YNgzeYX-1" value="" style="rounded=1;whiteSpace=wrap;html=1;" vertex="1" parent="1">
          <mxGeometry x="580" y="-220" width="470" height="130" as="geometry" />
        </mxCell>
        <mxCell id="5NBlNRbaQXi-0YNgzeYX-2" value="liliya" style="edgeLabel;html=1;align=center;verticalAlign=middle;resizable=0;points=[];" vertex="1" connectable="0" parent="1">
          <mxGeometry x="645" y="-120" as="geometry" />
        </mxCell>
        <mxCell id="5NBlNRbaQXi-0YNgzeYX-9" style="edgeStyle=orthogonalEdgeStyle;rounded=0;orthogonalLoop=1;jettySize=auto;html=1;exitX=0.995;exitY=0.63;exitDx=0;exitDy=0;exitPerimeter=0;entryX=0;entryY=0.5;entryDx=0;entryDy=0;" edge="1" parent="1" source="5NBlNRbaQXi-0YNgzeYX-3" target="5NBlNRbaQXi-0YNgzeYX-4">
          <mxGeometry relative="1" as="geometry" />
        </mxCell>
        <mxCell id="5NBlNRbaQXi-0YNgzeYX-3" value="" style="sketch=0;html=1;dashed=0;whitespace=wrap;fillColor=#2875E2;strokeColor=#ffffff;points=[[0.005,0.63,0],[0.1,0.2,0],[0.9,0.2,0],[0.5,0,0],[0.995,0.63,0],[0.72,0.99,0],[0.5,1,0],[0.28,0.99,0]];verticalLabelPosition=bottom;align=center;verticalAlign=top;shape=mxgraph.kubernetes.icon;prIcon=api" vertex="1" parent="1">
          <mxGeometry x="620" y="-191.58999999999997" width="50" height="50" as="geometry" />
        </mxCell>
        <mxCell id="5NBlNRbaQXi-0YNgzeYX-4" value="CR" style="rounded=0;whiteSpace=wrap;html=1;fillColor=#e1d5e7;strokeColor=#9673a6;" vertex="1" parent="1">
          <mxGeometry x="730" y="-185.91" width="70" height="50" as="geometry" />
        </mxCell>
        <mxCell id="5NBlNRbaQXi-0YNgzeYX-5" style="edgeStyle=orthogonalEdgeStyle;rounded=0;orthogonalLoop=1;jettySize=auto;html=1;exitX=1;exitY=0.5;exitDx=0;exitDy=0;" edge="1" parent="1" source="5NBlNRbaQXi-0YNgzeYX-6" target="5NBlNRbaQXi-0YNgzeYX-7">
          <mxGeometry relative="1" as="geometry" />
        </mxCell>
        <mxCell id="5NBlNRbaQXi-0YNgzeYX-11" value="xds" style="edgeLabel;html=1;align=center;verticalAlign=middle;resizable=0;points=[];" vertex="1" connectable="0" parent="5NBlNRbaQXi-0YNgzeYX-5">
          <mxGeometry x="-0.18" y="1" relative="1" as="geometry">
            <mxPoint as="offset" />
          </mxGeometry>
        </mxCell>
        <mxCell id="5NBlNRbaQXi-0YNgzeYX-6" value="" style="shape=image;verticalLabelPosition=bottom;labelBackgroundColor=default;verticalAlign=top;aspect=fixed;imageAspect=0;image=https://istio.io/v1.12/img/istio-whitelogo-bluebackground-unframed.svg;" vertex="1" parent="1">
          <mxGeometry x="850" y="-195.91" width="46.66" height="70" as="geometry" />
        </mxCell>
        <mxCell id="5NBlNRbaQXi-0YNgzeYX-7" value="" style="shape=image;verticalLabelPosition=bottom;labelBackgroundColor=default;verticalAlign=top;aspect=fixed;imageAspect=0;image=data:image/png,iVBORw0KGgoAAAANSUhEUgAAAQIAAADDCAMAAABeUu/HAAAA21BMVEX////hPq/RY86zGqvQX83OV8vhOq7fKaquAKXQYM3gM6zPWsywAKjgLqvPWczPXMzzud/++v3+9/z87Pf98fnNUsrtmtH31OvTadDmar7xstzjT7Xrisv13/T35/ffmN3x1PDkWLj2y+fpecTcjdrodsP2zujwqdjuyu3ahNfntObWdtPkqeLrwergsN3skc30wOLkVbfhn9/YfdXwrNnmZr3VktG8QbXHacL02/PqgcfvotXsxevXeNTry+nOfsm/S7i4LrHYm9XEXb7Ldcbdp9q9RrbCVbvGY8AmC3o+AAARbklEQVR4nO1d50LjSAwmxSWOneDYoSeEpewSeq9LW1h4/yc6BzthijTFLbDH9+tucezxZ0mWNLI0M/ONb3zjG9/4Ktia21zcnPsx7WVMDZ2lZcsxTdOxKjedaS9mGuivOJ5ZSeCZs9NeT+nYWrScCgnrLJj2msqEv1SxzAoD05qb9rpKQ3DgeRwB79pQ2Zr22koBpwGUIKyH015f0fCjdwAoAGM4ztK011go+gcOrAG0WexNe52FYWsT1wBaGw78aa+1CEg1gNKGyr/nLgYqGkAJwua/ZRZVNYAiwfs57WXnh1kNDSDhLc9Pe+m5IJhDvCAVQbBWvr5ZnE+hASQc83Dat5AJ/uxROg0gYS1+3dgpmDNTawAJ07qZ9q2kw/y6p6wBplcxRWR9RbOopQGmtTY7EyxawkOuv5aToKUBjnUdP+IfFZHUOM4XSinNb3qOKgGm581NjJ1/IJIc01vrT/O21KGnAcv0o+0decLDD6Z0UxoIdbwgx1rkE0RLQhvqmJ88dppfV/eCTM85AF/3nXWhFH3m2Mk/XNPSgCXU8d1aFmmD452WeVvqCOcqOhqwKU6RzgnP5a1dlXRXGpi/1vGCzAOpZe9LnITPllKKNECdgEgDlLbNDk2hWax8otgpvNHSAOAdgKCzIjaLnyV2utLQgIrnyTWAOrnQLH6O2ElPAyr4OwDDT6EgTD926uukg63FVD5NuCh0ma3rqW7H95QJiLygldTe/WeOnSqKDETvgNMsz0ocO1Wss6nFTqciU0U8ppQaQKJ3JtaGaW3HHykIwUgDctkbnHVE2jCl7XhfLgSRBvzMy1p1rsWCMI3t+FBGQR4aQGJeHDtNYTu+I3YIHCv9OwDDjdhJWCt7O94XUBB5QblpAAlZgrXslBJKgWOdFZbZORSaxbL3nZC1ON51oQIpi53KNIsQBUVpAInemjh2KnE7HngY1lkpgrgkdhKOSoudgIuXlc4KhQlW01opKXYChKCcC4/wQ+wklGQWl7kHYZWYz/PnPoFZ5GMEq9TYvX8mchIcp4T4cY2nIGG+t1qOnzYrytmZTvFycMZTEOcz/Xq7e1yKTvii2MlcK/z6AAWJ7C00qu32r8IXMIIodrIKt4mLPAWJ/EcUVKvGdjk57p9oBr94MdhEKdgZUVCtG8Oil/COYBPThuKsQSLu1zwFiVsWU1CtthYGRa2BwiGSYLWKscqd4cJx/F/X3HXHFPxOKKg2jNVS3pNIgtUrIp3WP643mwkFKzwFySUnFFSr7fpeAcvg0VsDnAQv/5h9sN1qR3eVUHDAUTBm/eSDgsgs/i4nx73Ey4GX8yvB31sw6u9mbjX+hzmegoT1bZKCSBuO810JglN+PblSEBy3msmNKVBQr1JoVu/yXAuCJc5D8HLcaBpsd9uTG6pvxP8IUJCwvsFQMHISivdWZ4ujYKIBDAU3GhSU4SQAFOSTVw92201KtauN7fgvP3kKEtYBCkZOQsGx0yFHQS5bC4MNo83eS+Mk/htgfpJLrkIUVBvdYp0EgILMlWn+3o4B3Ezjd/xn3vyMLwlTEL1OG7dZ1yQAQEHGTGqw22g1oBtp7MQH8Lo3vuRuF/xhBOOkOCfhR84UDDZanAbIKRjX/gwWmsiP68ZuxjtFsYWvRx+IBowpWIiPAgTvY59/t4udoFlU7DTPuchO2rqDcLcNa8AYCQWA4BF7esGJgVFobBRiFgEK0u0x9je6mAawFEgu+auOnagYJ6HHr2clzXmGqAATiA8FWKcv6R8bmDS1dvJ3EgAKrlOcZtiVE9Bux8dKKYhWtYNqQ/4J1j63HjMFBQG24o+lN+vHyXsNoIC/5LCNaUO7mnOCNeApWNc/yy72LktQNxaGk4fHCx7EeriBakPOCdaQX8+m/lnYKJd5bsb2gDgYoABkXeAktPI0iwAFi/pnOcFfho1m+5j27AAKENZ3US8jzwQrX/9lnumfZRujgNKABID5wVjvl+Ek8PVfqSiAn1a7S2lAAsD84Je8xc1iM6cEK0BBir0UKNBvNI1j0GwBFAgu6a/isVM+CdYO3ygrFwoiDdhDXuCA+TkSnby308K0IRcnwefKwsXrgcFS0GhBGpCgw1OwLD79EDWLeSRYfXY50vVAYHMdC6IXt89vXsguKXQSsiZY/eUCKBhnBhAA+zfSK9zhTkJzoL9gCnzlTwoKjhkKFoRH8xSY8kv4uJNgZAydgK8D9E3MMfPm0qXAUbkI6iQ0qtmMYi4U7LIvb+HRfH2HYtXdHuIkNLP5y3zxU0Xf7WIpqAuP5jf1VQsPO7CTIFE8GfjKHzM7BU3h0RwDGrWXV6BZNDKFjgAF+m+ZIbMuQ3g0QIGG7kFOgpGpgpcvflKvtAnO75NlwRSEsKkGyk91BC/Y5pyE1kDj9xzSUzC4tO3n+D/3YAr69jn0Q6D8VE/wfi0wHLQy+Yh8/Zenolj+/oXt1lyMgliwA9d9BBYHlJ9q6nKfuV4rUy5tPQ0FwXnNrkUYU3ALUxC6tZp9yT1htPxUGWGuFAAlcLL1DC5dt/YO9zL+l1smljNi3R5RUHPdF+b3QO2lZtQbsm+gTNuuQAmckIJYA2o0Bb9YCuIn34mPsi9og43XXqqCoyBT9gQogRM8kuDctWsfsN/if0Yo8CfH3ZNvPV73LM2XWoctSspEAV8Chz+SwduHAMS39if+wx1LQcLi5EDX3f84DV57qYrCKUDWs//IEBDhNf7TQEZBxNbDRLgAwdOkwK8yFGQKEvj6L3A9jAaM8RD/VYGCmm2fJ9oAsK5Z8ZovBUD9F7+eyAviBOAdf+O/XzFh7DiCf6TVJnGU8PJTZTAUtDNRABQ/MRW41DuAwUV8SE+JAjdxp/Hay9QUZCpBWZKVn+7XIA1I8Bgf0y+bgoVcKeALDykKzgUE4BQkL7kLmoLEl8RrL9UpoIOEdqZqZUn56Z2QAbsWH8Vuro8jtwvq12NHCqBAt+KVoWBc3lwIBW+YFRiZ+MeXjpiCPdcFKADKT3XLPXfypICv/6LW84gR4NqvH7FJyBSZTMKWzjMhB2NHirfA2uWeJVLgIxS49j3pRndYKfhgZ/A4EQQ7caSA8lPdWkdmN39c4Z0OQAkc+UhACuzaC53mYSmgIreniTYkFAhqL1VRJgUX3P279gMXmnaY+J322YM/iTY8xP8P1F7qUsDs5te3NX9PQVJ+ylLgus9AVCcLW25r74KQ+JIA67rlnsw+biMTBUD9F0nBX5qA2hOY5fNZCliH1b8fCULiSxZAwYnm7ylciStwHygGnpCTKIQtvchHSCjgBc8800zcs/u4v/V+zixNXA5LUWBjiVqWAjBseXETX5IXPO3ZJnpb2RLwxU9ULeirGgVKPnuYOMgABbrNVJh93GwU8JU/VC3oK5UnQ7OUrM8uDFtACvRmm+wWSwFVC/qHpMBF81M7OhTwl0y4d5SjJZaCTPuqAW+byFpQKkYgE4A0WArEkRvMwEgQVOdCDvOkAKi9JGtBL4uggE8YfJCg9nocsjUdWYosQr7wkKwFfaYoYDdFJvitFbZ0BL2FvGWVJBq7j5upzkRCwT1FAeYXcD67JHI7FLTVUZptkisFQO0lWQ6rSMG2ZtgyJ24tJE0fsPu41SwFyR3+MZAUnFMUgHvlI7AUSH32JVE7dFM6F5KloJ6pWTC/ALICV5UC7bBF2ohSKNosBe0CKXhSoyBN2CJpRCmcC8luZTczlaDy5adkEfILRcE9dhKWAqWwxU/fiJLdx21loGCe3+mmKnAVKUgZtvQkTfzRlCK3j5uaAnheYw4UKHtrp8IpCWjsxG1ipqu6Q+c1LhOWaF+NAjZyE1NAWroQ7TEVCwLciJLbxExDgWhSEUrBM3Y2tghZXIH7RJlVSRN/sBElt4mp/X2KPyuYVGSSFbj70F4ID7b8tCG8/Iv9OCBXI2tEyd9fVgoCyaQisgJ3j6RgvBcip0BchBzxaj+TAt4TNqI0PS7BjO3jqkE+r9EhKaB2BV+xk7KRm5iCEa8uHXZKmvizsVOfNYfqxUpK8xpJKbilKHhAKWAdVmEHltt30bIfyEcna+JPzzbpszt4A0UC1OY1Uq4RvbN8oUpBtd0WVEAlJ7Xp+tz5ikYTf6ZZgCIFo5m9KlNKqAzygKLgETs3F7kJvyKc8OrWqISsuIm/Rc2FDKlvVJSKkNWnVlOll1dqFLA++wiNLpZBJETLfiP9Oq0m/rdEtwt5Ba7OvEaLErgeXWKBXYC10DGa1YGMArY+VzYAjYydiG4XMgp05jU6NAMzfbpOBL3GDtzKqLsBOe8i7ZLFTtRcyMmHrMIiZKEXxBHgrTMKrErBAPl6rA6VBIoNzLywib9Dl2MkX2wJyk9lXhAJ03PmOFdblYKZY+zDYqADi8zAnIqdhDUydgo3Rl9soRRoTa2GR1UFVK2RjVMws4p1dGkY7MfVtIF55PND0ib+5E+uFloIBXoagA3qUadg5ldDtQMLY2OhFJlW7DQ0oIZHWlOrBeMKNSiILDTeaoD6uLrzaMsoGCWZxQPQSJ0NNji/YOQFqd6/aVVO8VRlSFMgSdf30VYD9S71nF6IajwX8aX7UH9eYtmi4hx1L0g+qIehQJqo3WviHVjIUCa8tGUUyGMnJKWE5oIgJj1PNqoqpLTWlqfo8FYDTPfKu3E1Hk6BPHYC1qM1tVplXGGHpkAlP4X3I2JaXJ/H2iAULc0BaJrvAKVRVT5NgVpyRtBqgOpe2X8v4JBo141QqC1yAJrOO0B9XCFdfmorZibwfkRM98q9KFiUaZcsdho7CZoaoD6qivmkAK0wYLCHNi2ku1d27m25dklip5GTUIQGwBTU7L+KWTqk1UD1vTEV+dyvHuVnlE1JXdSb2645sJMtP7VtdDOBAdxq4F0b6NhJRSJ7R8J9Jx0vSHtY2zP3QYJbU/08VtDLVb975am6pgsEIM24QuizFPuP4haeoJerQmOqvQXKrRbvOykRkHJk7SvwXYpro/UmDG5Rs9iuCzM9wW6z1WD6vYpjJzFML/24wrAGfZvDfoqNwl9N073yatxTvbVDXUccO4kEINO4wvAB/ETLvlckFW/ThjT1pTpKM5NjxAPQEAFwnMwDO/ddSBDcmurH0kPF2OkdwW6V7ijNuNWz6uY/JsBavslhzkT4DAvCH8XdTEHsxIwHugKmCjButTh2YpBRA0gQX1mRgoBXHzG4qyrETv4t0lO93qLcanHsRBGQ68jaJ/DDZbBfCwi8838r3ncKd+t4T3WmKbx43ynRAM/MQwNIBK+wNlwqVn72RS2uYQ0gj6H7vQYys2haa0UMxLuFzaJ67IT3cjUEUwUS1A3KLIpiJ9Ox1gsaWevfg9pg/1U0ix3cSZCjbtA+ArrvFGnAXIGzhq4uIG2w4TZWI/TvqT/hsZMYjWaTnzoKDkCLNCDHyU8gXhAnAXR3795sly4smhm2FMYIsAQYC0PwuXLDox1vvYSB0UTylzaL7CIn7S/sZ2oHfVvaR59G3ThBwwlq3ymKA/gtwWJwhzgJ1DZ5//yj/QVjMX9VZQM1CAGANIDE1lFcORKZwKPZEgc2n9ugSfiIne7eaH2hC4sEczB4DZCGIlsrR5ZlHa2UNjI9Rh+Lnd6fA9ACibGYeOxEakAX1wAaflji858Ai51ug3PwL2y2CW9xnaDZXS1nqGR6+HDs5KIdgKKwijRWId+9ktCAVpWbKvAZAcdOAri0Ngyw2KltnJQxTDIXPMEyjzJwsU8/WsgsNprtT68BJII3YdcfmoDLAff7/gljFpXeAZ8Mt2BukSegdg8/Wmrf6StpAIEodpJJAq8BBKLYqT7WgOOvpAEkerCT8EHAm/jR9jYMo2V0v54GkICdhHfY7rncb/d7g6uvKgBjdODYKQoTcQ345wDETpEGDKa9rHLBxE6uigb8a+h/JFhH74BpL2c62KvZcQdswAv6v8Dff7t4fPgfasA3vvGNb/zD+A8o1ZV9V99mqgAAAABJRU5ErkJggg==;" vertex="1" parent="1">
          <mxGeometry x="960" y="-182.42000000000007" width="59.31" height="44.83" as="geometry" />
        </mxCell>
        <mxCell id="5NBlNRbaQXi-0YNgzeYX-8" value="" style="endArrow=none;dashed=1;html=1;dashPattern=1 3;strokeWidth=2;rounded=0;entryX=0;entryY=0.5;entryDx=0;entryDy=0;exitX=1;exitY=0.5;exitDx=0;exitDy=0;" edge="1" parent="1" source="5NBlNRbaQXi-0YNgzeYX-4" target="5NBlNRbaQXi-0YNgzeYX-6">
          <mxGeometry width="50" height="50" relative="1" as="geometry">
            <mxPoint x="409.77" y="11.5" as="sourcePoint" />
            <mxPoint x="459.77" y="-38.5" as="targetPoint" />
          </mxGeometry>
        </mxCell>
        <mxCell id="5NBlNRbaQXi-0YNgzeYX-10" value="Istio" style="text;html=1;align=center;verticalAlign=middle;whiteSpace=wrap;rounded=0;" vertex="1" parent="1">
          <mxGeometry x="843.3299999999999" y="-120" width="60" height="30" as="geometry" />
        </mxCell>
        <mxCell id="5NBlNRbaQXi-0YNgzeYX-12" value="Envoy" style="text;html=1;align=center;verticalAlign=middle;whiteSpace=wrap;rounded=0;" vertex="1" parent="1">
          <mxGeometry x="959.9999999999999" y="-120" width="60" height="30" as="geometry" />
        </mxCell>
        <mxCell id="5NBlNRbaQXi-0YNgzeYX-32" value="" style="rounded=0;whiteSpace=wrap;html=1;fillColor=#f9f7ed;strokeColor=#36393d;" vertex="1" parent="1">
          <mxGeometry x="1160" y="601" width="160" height="280" as="geometry" />
        </mxCell>
        <mxCell id="5NBlNRbaQXi-0YNgzeYX-49" value="" style="rounded=0;whiteSpace=wrap;html=1;fillColor=#fff2cc;strokeColor=#d6b656;" vertex="1" parent="1">
          <mxGeometry x="685" y="280" width="512.5" height="250" as="geometry" />
        </mxCell>
        <mxCell id="5NBlNRbaQXi-0YNgzeYX-60" style="edgeStyle=orthogonalEdgeStyle;rounded=0;orthogonalLoop=1;jettySize=auto;html=1;exitX=0.5;exitY=0;exitDx=0;exitDy=0;entryX=0.5;entryY=1;entryDx=0;entryDy=0;" edge="1" parent="1" source="5NBlNRbaQXi-0YNgzeYX-50" target="5NBlNRbaQXi-0YNgzeYX-53">
          <mxGeometry relative="1" as="geometry" />
        </mxCell>
        <mxCell id="5NBlNRbaQXi-0YNgzeYX-62" style="rounded=0;orthogonalLoop=1;jettySize=auto;html=1;exitX=1;exitY=0;exitDx=0;exitDy=0;entryX=0;entryY=1;entryDx=0;entryDy=0;strokeColor=#EA6B66;strokeWidth=2;" edge="1" parent="1" source="5NBlNRbaQXi-0YNgzeYX-50" target="5NBlNRbaQXi-0YNgzeYX-56">
          <mxGeometry relative="1" as="geometry" />
        </mxCell>
        <mxCell id="5NBlNRbaQXi-0YNgzeYX-88" style="rounded=0;orthogonalLoop=1;jettySize=auto;html=1;exitX=0.75;exitY=1;exitDx=0;exitDy=0;entryX=0.436;entryY=-0.004;entryDx=0;entryDy=0;entryPerimeter=0;strokeColor=#EA6B66;strokeWidth=2;" edge="1" parent="1" source="5NBlNRbaQXi-0YNgzeYX-50" target="5NBlNRbaQXi-0YNgzeYX-70">
          <mxGeometry relative="1" as="geometry" />
        </mxCell>
        <mxCell id="5NBlNRbaQXi-0YNgzeYX-50" value="" style="shape=image;verticalLabelPosition=bottom;labelBackgroundColor=default;verticalAlign=top;aspect=fixed;imageAspect=0;image=data:image/png,iVBORw0KGgoAAAANSUhEUgAAAQIAAADDCAMAAABeUu/HAAAA21BMVEX////hPq/RY86zGqvQX83OV8vhOq7fKaquAKXQYM3gM6zPWsywAKjgLqvPWczPXMzzud/++v3+9/z87Pf98fnNUsrtmtH31OvTadDmar7xstzjT7Xrisv13/T35/ffmN3x1PDkWLj2y+fpecTcjdrodsP2zujwqdjuyu3ahNfntObWdtPkqeLrwergsN3skc30wOLkVbfhn9/YfdXwrNnmZr3VktG8QbXHacL02/PqgcfvotXsxevXeNTry+nOfsm/S7i4LrHYm9XEXb7Ldcbdp9q9RrbCVbvGY8AmC3o+AAARbklEQVR4nO1d50LjSAwmxSWOneDYoSeEpewSeq9LW1h4/yc6BzthijTFLbDH9+tucezxZ0mWNLI0M/ONb3zjG9/4Ktia21zcnPsx7WVMDZ2lZcsxTdOxKjedaS9mGuivOJ5ZSeCZs9NeT+nYWrScCgnrLJj2msqEv1SxzAoD05qb9rpKQ3DgeRwB79pQ2Zr22koBpwGUIKyH015f0fCjdwAoAGM4ztK011go+gcOrAG0WexNe52FYWsT1wBaGw78aa+1CEg1gNKGyr/nLgYqGkAJwua/ZRZVNYAiwfs57WXnh1kNDSDhLc9Pe+m5IJhDvCAVQbBWvr5ZnE+hASQc83Dat5AJ/uxROg0gYS1+3dgpmDNTawAJ07qZ9q2kw/y6p6wBplcxRWR9RbOopQGmtTY7EyxawkOuv5aToKUBjnUdP+IfFZHUOM4XSinNb3qOKgGm581NjJ1/IJIc01vrT/O21KGnAcv0o+0decLDD6Z0UxoIdbwgx1rkE0RLQhvqmJ88dppfV/eCTM85AF/3nXWhFH3m2Mk/XNPSgCXU8d1aFmmD452WeVvqCOcqOhqwKU6RzgnP5a1dlXRXGpi/1vGCzAOpZe9LnITPllKKNECdgEgDlLbNDk2hWax8otgpvNHSAOAdgKCzIjaLnyV2utLQgIrnyTWAOrnQLH6O2ElPAyr4OwDDT6EgTD926uukg63FVD5NuCh0ma3rqW7H95QJiLygldTe/WeOnSqKDETvgNMsz0ocO1Wss6nFTqciU0U8ppQaQKJ3JtaGaW3HHykIwUgDctkbnHVE2jCl7XhfLgSRBvzMy1p1rsWCMI3t+FBGQR4aQGJeHDtNYTu+I3YIHCv9OwDDjdhJWCt7O94XUBB5QblpAAlZgrXslBJKgWOdFZbZORSaxbL3nZC1ON51oQIpi53KNIsQBUVpAInemjh2KnE7HngY1lkpgrgkdhKOSoudgIuXlc4KhQlW01opKXYChKCcC4/wQ+wklGQWl7kHYZWYz/PnPoFZ5GMEq9TYvX8mchIcp4T4cY2nIGG+t1qOnzYrytmZTvFycMZTEOcz/Xq7e1yKTvii2MlcK/z6AAWJ7C00qu32r8IXMIIodrIKt4mLPAWJ/EcUVKvGdjk57p9oBr94MdhEKdgZUVCtG8Oil/COYBPThuKsQSLu1zwFiVsWU1CtthYGRa2BwiGSYLWKscqd4cJx/F/X3HXHFPxOKKg2jNVS3pNIgtUrIp3WP643mwkFKzwFySUnFFSr7fpeAcvg0VsDnAQv/5h9sN1qR3eVUHDAUTBm/eSDgsgs/i4nx73Ey4GX8yvB31sw6u9mbjX+hzmegoT1bZKCSBuO810JglN+PblSEBy3msmNKVBQr1JoVu/yXAuCJc5D8HLcaBpsd9uTG6pvxP8IUJCwvsFQMHISivdWZ4ujYKIBDAU3GhSU4SQAFOSTVw92201KtauN7fgvP3kKEtYBCkZOQsGx0yFHQS5bC4MNo83eS+Mk/htgfpJLrkIUVBvdYp0EgILMlWn+3o4B3Ezjd/xn3vyMLwlTEL1OG7dZ1yQAQEHGTGqw22g1oBtp7MQH8Lo3vuRuF/xhBOOkOCfhR84UDDZanAbIKRjX/gwWmsiP68ZuxjtFsYWvRx+IBowpWIiPAgTvY59/t4udoFlU7DTPuchO2rqDcLcNa8AYCQWA4BF7esGJgVFobBRiFgEK0u0x9je6mAawFEgu+auOnagYJ6HHr2clzXmGqAATiA8FWKcv6R8bmDS1dvJ3EgAKrlOcZtiVE9Bux8dKKYhWtYNqQ/4J1j63HjMFBQG24o+lN+vHyXsNoIC/5LCNaUO7mnOCNeApWNc/yy72LktQNxaGk4fHCx7EeriBakPOCdaQX8+m/lnYKJd5bsb2gDgYoABkXeAktPI0iwAFi/pnOcFfho1m+5j27AAKENZ3US8jzwQrX/9lnumfZRujgNKABID5wVjvl+Ek8PVfqSiAn1a7S2lAAsD84Je8xc1iM6cEK0BBir0UKNBvNI1j0GwBFAgu6a/isVM+CdYO3ygrFwoiDdhDXuCA+TkSnby308K0IRcnwefKwsXrgcFS0GhBGpCgw1OwLD79EDWLeSRYfXY50vVAYHMdC6IXt89vXsguKXQSsiZY/eUCKBhnBhAA+zfSK9zhTkJzoL9gCnzlTwoKjhkKFoRH8xSY8kv4uJNgZAydgK8D9E3MMfPm0qXAUbkI6iQ0qtmMYi4U7LIvb+HRfH2HYtXdHuIkNLP5y3zxU0Xf7WIpqAuP5jf1VQsPO7CTIFE8GfjKHzM7BU3h0RwDGrWXV6BZNDKFjgAF+m+ZIbMuQ3g0QIGG7kFOgpGpgpcvflKvtAnO75NlwRSEsKkGyk91BC/Y5pyE1kDj9xzSUzC4tO3n+D/3YAr69jn0Q6D8VE/wfi0wHLQy+Yh8/Zenolj+/oXt1lyMgliwA9d9BBYHlJ9q6nKfuV4rUy5tPQ0FwXnNrkUYU3ALUxC6tZp9yT1htPxUGWGuFAAlcLL1DC5dt/YO9zL+l1smljNi3R5RUHPdF+b3QO2lZtQbsm+gTNuuQAmckIJYA2o0Bb9YCuIn34mPsi9og43XXqqCoyBT9gQogRM8kuDctWsfsN/if0Yo8CfH3ZNvPV73LM2XWoctSspEAV8Chz+SwduHAMS39if+wx1LQcLi5EDX3f84DV57qYrCKUDWs//IEBDhNf7TQEZBxNbDRLgAwdOkwK8yFGQKEvj6L3A9jAaM8RD/VYGCmm2fJ9oAsK5Z8ZovBUD9F7+eyAviBOAdf+O/XzFh7DiCf6TVJnGU8PJTZTAUtDNRABQ/MRW41DuAwUV8SE+JAjdxp/Hay9QUZCpBWZKVn+7XIA1I8Bgf0y+bgoVcKeALDykKzgUE4BQkL7kLmoLEl8RrL9UpoIOEdqZqZUn56Z2QAbsWH8Vuro8jtwvq12NHCqBAt+KVoWBc3lwIBW+YFRiZ+MeXjpiCPdcFKADKT3XLPXfypICv/6LW84gR4NqvH7FJyBSZTMKWzjMhB2NHirfA2uWeJVLgIxS49j3pRndYKfhgZ/A4EQQ7caSA8lPdWkdmN39c4Z0OQAkc+UhACuzaC53mYSmgIreniTYkFAhqL1VRJgUX3P279gMXmnaY+J322YM/iTY8xP8P1F7qUsDs5te3NX9PQVJ+ylLgus9AVCcLW25r74KQ+JIA67rlnsw+biMTBUD9F0nBX5qA2hOY5fNZCliH1b8fCULiSxZAwYnm7ylciStwHygGnpCTKIQtvchHSCjgBc8800zcs/u4v/V+zixNXA5LUWBjiVqWAjBseXETX5IXPO3ZJnpb2RLwxU9ULeirGgVKPnuYOMgABbrNVJh93GwU8JU/VC3oK5UnQ7OUrM8uDFtACvRmm+wWSwFVC/qHpMBF81M7OhTwl0y4d5SjJZaCTPuqAW+byFpQKkYgE4A0WArEkRvMwEgQVOdCDvOkAKi9JGtBL4uggE8YfJCg9nocsjUdWYosQr7wkKwFfaYoYDdFJvitFbZ0BL2FvGWVJBq7j5upzkRCwT1FAeYXcD67JHI7FLTVUZptkisFQO0lWQ6rSMG2ZtgyJ24tJE0fsPu41SwFyR3+MZAUnFMUgHvlI7AUSH32JVE7dFM6F5KloJ6pWTC/ALICV5UC7bBF2ohSKNosBe0CKXhSoyBN2CJpRCmcC8luZTczlaDy5adkEfILRcE9dhKWAqWwxU/fiJLdx21loGCe3+mmKnAVKUgZtvQkTfzRlCK3j5uaAnheYw4UKHtrp8IpCWjsxG1ipqu6Q+c1LhOWaF+NAjZyE1NAWroQ7TEVCwLciJLbxExDgWhSEUrBM3Y2tghZXIH7RJlVSRN/sBElt4mp/X2KPyuYVGSSFbj70F4ID7b8tCG8/Iv9OCBXI2tEyd9fVgoCyaQisgJ3j6RgvBcip0BchBzxaj+TAt4TNqI0PS7BjO3jqkE+r9EhKaB2BV+xk7KRm5iCEa8uHXZKmvizsVOfNYfqxUpK8xpJKbilKHhAKWAdVmEHltt30bIfyEcna+JPzzbpszt4A0UC1OY1Uq4RvbN8oUpBtd0WVEAlJ7Xp+tz5ikYTf6ZZgCIFo5m9KlNKqAzygKLgETs3F7kJvyKc8OrWqISsuIm/Rc2FDKlvVJSKkNWnVlOll1dqFLA++wiNLpZBJETLfiP9Oq0m/rdEtwt5Ba7OvEaLErgeXWKBXYC10DGa1YGMArY+VzYAjYydiG4XMgp05jU6NAMzfbpOBL3GDtzKqLsBOe8i7ZLFTtRcyMmHrMIiZKEXxBHgrTMKrErBAPl6rA6VBIoNzLywib9Dl2MkX2wJyk9lXhAJ03PmOFdblYKZY+zDYqADi8zAnIqdhDUydgo3Rl9soRRoTa2GR1UFVK2RjVMws4p1dGkY7MfVtIF55PND0ib+5E+uFloIBXoagA3qUadg5ldDtQMLY2OhFJlW7DQ0oIZHWlOrBeMKNSiILDTeaoD6uLrzaMsoGCWZxQPQSJ0NNji/YOQFqd6/aVVO8VRlSFMgSdf30VYD9S71nF6IajwX8aX7UH9eYtmi4hx1L0g+qIehQJqo3WviHVjIUCa8tGUUyGMnJKWE5oIgJj1PNqoqpLTWlqfo8FYDTPfKu3E1Hk6BPHYC1qM1tVplXGGHpkAlP4X3I2JaXJ/H2iAULc0BaJrvAKVRVT5NgVpyRtBqgOpe2X8v4JBo141QqC1yAJrOO0B9XCFdfmorZibwfkRM98q9KFiUaZcsdho7CZoaoD6qivmkAK0wYLCHNi2ku1d27m25dklip5GTUIQGwBTU7L+KWTqk1UD1vTEV+dyvHuVnlE1JXdSb2645sJMtP7VtdDOBAdxq4F0b6NhJRSJ7R8J9Jx0vSHtY2zP3QYJbU/08VtDLVb975am6pgsEIM24QuizFPuP4haeoJerQmOqvQXKrRbvOykRkHJk7SvwXYpro/UmDG5Rs9iuCzM9wW6z1WD6vYpjJzFML/24wrAGfZvDfoqNwl9N073yatxTvbVDXUccO4kEINO4wvAB/ETLvlckFW/ThjT1pTpKM5NjxAPQEAFwnMwDO/ddSBDcmurH0kPF2OkdwW6V7ijNuNWz6uY/JsBavslhzkT4DAvCH8XdTEHsxIwHugKmCjButTh2YpBRA0gQX1mRgoBXHzG4qyrETv4t0lO93qLcanHsRBGQ68jaJ/DDZbBfCwi8838r3ncKd+t4T3WmKbx43ynRAM/MQwNIBK+wNlwqVn72RS2uYQ0gj6H7vQYys2haa0UMxLuFzaJ67IT3cjUEUwUS1A3KLIpiJ9Ox1gsaWevfg9pg/1U0ix3cSZCjbtA+ArrvFGnAXIGzhq4uIG2w4TZWI/TvqT/hsZMYjWaTnzoKDkCLNCDHyU8gXhAnAXR3795sly4smhm2FMYIsAQYC0PwuXLDox1vvYSB0UTylzaL7CIn7S/sZ2oHfVvaR59G3ThBwwlq3ymKA/gtwWJwhzgJ1DZ5//yj/QVjMX9VZQM1CAGANIDE1lFcORKZwKPZEgc2n9ugSfiIne7eaH2hC4sEczB4DZCGIlsrR5ZlHa2UNjI9Rh+Lnd6fA9ACibGYeOxEakAX1wAaflji858Ai51ug3PwL2y2CW9xnaDZXS1nqGR6+HDs5KIdgKKwijRWId+9ktCAVpWbKvAZAcdOAri0Ngyw2KltnJQxTDIXPMEyjzJwsU8/WsgsNprtT68BJII3YdcfmoDLAff7/gljFpXeAZ8Mt2BukSegdg8/Wmrf6StpAIEodpJJAq8BBKLYqT7WgOOvpAEkerCT8EHAm/jR9jYMo2V0v54GkICdhHfY7rncb/d7g6uvKgBjdODYKQoTcQ345wDETpEGDKa9rHLBxE6uigb8a+h/JFhH74BpL2c62KvZcQdswAv6v8Dff7t4fPgfasA3vvGNb/zD+A8o1ZV9V99mqgAAAABJRU5ErkJggg==;" vertex="1" parent="1">
          <mxGeometry x="776.83" y="451" width="59.31" height="44.83" as="geometry" />
        </mxCell>
        <mxCell id="5NBlNRbaQXi-0YNgzeYX-59" style="edgeStyle=orthogonalEdgeStyle;rounded=0;orthogonalLoop=1;jettySize=auto;html=1;exitX=0.5;exitY=0;exitDx=0;exitDy=0;entryX=0.75;entryY=1;entryDx=0;entryDy=0;" edge="1" parent="1" source="5NBlNRbaQXi-0YNgzeYX-51" target="5NBlNRbaQXi-0YNgzeYX-56">
          <mxGeometry relative="1" as="geometry" />
        </mxCell>
        <mxCell id="5NBlNRbaQXi-0YNgzeYX-61" style="rounded=0;orthogonalLoop=1;jettySize=auto;html=1;exitX=0;exitY=0;exitDx=0;exitDy=0;entryX=1;entryY=1;entryDx=0;entryDy=0;strokeColor=#EA6B66;strokeWidth=2;" edge="1" parent="1" source="5NBlNRbaQXi-0YNgzeYX-51" target="5NBlNRbaQXi-0YNgzeYX-55">
          <mxGeometry relative="1" as="geometry" />
        </mxCell>
        <mxCell id="5NBlNRbaQXi-0YNgzeYX-89" style="rounded=0;orthogonalLoop=1;jettySize=auto;html=1;exitX=0.5;exitY=1;exitDx=0;exitDy=0;entryX=0.598;entryY=-0.007;entryDx=0;entryDy=0;entryPerimeter=0;strokeColor=#EA6B66;strokeWidth=2;" edge="1" parent="1" source="5NBlNRbaQXi-0YNgzeYX-51" target="5NBlNRbaQXi-0YNgzeYX-70">
          <mxGeometry relative="1" as="geometry">
            <mxPoint x="920" y="640" as="targetPoint" />
          </mxGeometry>
        </mxCell>
        <mxCell id="5NBlNRbaQXi-0YNgzeYX-51" value="" style="shape=image;verticalLabelPosition=bottom;labelBackgroundColor=default;verticalAlign=top;aspect=fixed;imageAspect=0;image=data:image/png,iVBORw0KGgoAAAANSUhEUgAAAQIAAADDCAMAAABeUu/HAAAA21BMVEX////hPq/RY86zGqvQX83OV8vhOq7fKaquAKXQYM3gM6zPWsywAKjgLqvPWczPXMzzud/++v3+9/z87Pf98fnNUsrtmtH31OvTadDmar7xstzjT7Xrisv13/T35/ffmN3x1PDkWLj2y+fpecTcjdrodsP2zujwqdjuyu3ahNfntObWdtPkqeLrwergsN3skc30wOLkVbfhn9/YfdXwrNnmZr3VktG8QbXHacL02/PqgcfvotXsxevXeNTry+nOfsm/S7i4LrHYm9XEXb7Ldcbdp9q9RrbCVbvGY8AmC3o+AAARbklEQVR4nO1d50LjSAwmxSWOneDYoSeEpewSeq9LW1h4/yc6BzthijTFLbDH9+tucezxZ0mWNLI0M/ONb3zjG9/4Ktia21zcnPsx7WVMDZ2lZcsxTdOxKjedaS9mGuivOJ5ZSeCZs9NeT+nYWrScCgnrLJj2msqEv1SxzAoD05qb9rpKQ3DgeRwB79pQ2Zr22koBpwGUIKyH015f0fCjdwAoAGM4ztK011go+gcOrAG0WexNe52FYWsT1wBaGw78aa+1CEg1gNKGyr/nLgYqGkAJwua/ZRZVNYAiwfs57WXnh1kNDSDhLc9Pe+m5IJhDvCAVQbBWvr5ZnE+hASQc83Dat5AJ/uxROg0gYS1+3dgpmDNTawAJ07qZ9q2kw/y6p6wBplcxRWR9RbOopQGmtTY7EyxawkOuv5aToKUBjnUdP+IfFZHUOM4XSinNb3qOKgGm581NjJ1/IJIc01vrT/O21KGnAcv0o+0decLDD6Z0UxoIdbwgx1rkE0RLQhvqmJ88dppfV/eCTM85AF/3nXWhFH3m2Mk/XNPSgCXU8d1aFmmD452WeVvqCOcqOhqwKU6RzgnP5a1dlXRXGpi/1vGCzAOpZe9LnITPllKKNECdgEgDlLbNDk2hWax8otgpvNHSAOAdgKCzIjaLnyV2utLQgIrnyTWAOrnQLH6O2ElPAyr4OwDDT6EgTD926uukg63FVD5NuCh0ma3rqW7H95QJiLygldTe/WeOnSqKDETvgNMsz0ocO1Wss6nFTqciU0U8ppQaQKJ3JtaGaW3HHykIwUgDctkbnHVE2jCl7XhfLgSRBvzMy1p1rsWCMI3t+FBGQR4aQGJeHDtNYTu+I3YIHCv9OwDDjdhJWCt7O94XUBB5QblpAAlZgrXslBJKgWOdFZbZORSaxbL3nZC1ON51oQIpi53KNIsQBUVpAInemjh2KnE7HngY1lkpgrgkdhKOSoudgIuXlc4KhQlW01opKXYChKCcC4/wQ+wklGQWl7kHYZWYz/PnPoFZ5GMEq9TYvX8mchIcp4T4cY2nIGG+t1qOnzYrytmZTvFycMZTEOcz/Xq7e1yKTvii2MlcK/z6AAWJ7C00qu32r8IXMIIodrIKt4mLPAWJ/EcUVKvGdjk57p9oBr94MdhEKdgZUVCtG8Oil/COYBPThuKsQSLu1zwFiVsWU1CtthYGRa2BwiGSYLWKscqd4cJx/F/X3HXHFPxOKKg2jNVS3pNIgtUrIp3WP643mwkFKzwFySUnFFSr7fpeAcvg0VsDnAQv/5h9sN1qR3eVUHDAUTBm/eSDgsgs/i4nx73Ey4GX8yvB31sw6u9mbjX+hzmegoT1bZKCSBuO810JglN+PblSEBy3msmNKVBQr1JoVu/yXAuCJc5D8HLcaBpsd9uTG6pvxP8IUJCwvsFQMHISivdWZ4ujYKIBDAU3GhSU4SQAFOSTVw92201KtauN7fgvP3kKEtYBCkZOQsGx0yFHQS5bC4MNo83eS+Mk/htgfpJLrkIUVBvdYp0EgILMlWn+3o4B3Ezjd/xn3vyMLwlTEL1OG7dZ1yQAQEHGTGqw22g1oBtp7MQH8Lo3vuRuF/xhBOOkOCfhR84UDDZanAbIKRjX/gwWmsiP68ZuxjtFsYWvRx+IBowpWIiPAgTvY59/t4udoFlU7DTPuchO2rqDcLcNa8AYCQWA4BF7esGJgVFobBRiFgEK0u0x9je6mAawFEgu+auOnagYJ6HHr2clzXmGqAATiA8FWKcv6R8bmDS1dvJ3EgAKrlOcZtiVE9Bux8dKKYhWtYNqQ/4J1j63HjMFBQG24o+lN+vHyXsNoIC/5LCNaUO7mnOCNeApWNc/yy72LktQNxaGk4fHCx7EeriBakPOCdaQX8+m/lnYKJd5bsb2gDgYoABkXeAktPI0iwAFi/pnOcFfho1m+5j27AAKENZ3US8jzwQrX/9lnumfZRujgNKABID5wVjvl+Ek8PVfqSiAn1a7S2lAAsD84Je8xc1iM6cEK0BBir0UKNBvNI1j0GwBFAgu6a/isVM+CdYO3ygrFwoiDdhDXuCA+TkSnby308K0IRcnwefKwsXrgcFS0GhBGpCgw1OwLD79EDWLeSRYfXY50vVAYHMdC6IXt89vXsguKXQSsiZY/eUCKBhnBhAA+zfSK9zhTkJzoL9gCnzlTwoKjhkKFoRH8xSY8kv4uJNgZAydgK8D9E3MMfPm0qXAUbkI6iQ0qtmMYi4U7LIvb+HRfH2HYtXdHuIkNLP5y3zxU0Xf7WIpqAuP5jf1VQsPO7CTIFE8GfjKHzM7BU3h0RwDGrWXV6BZNDKFjgAF+m+ZIbMuQ3g0QIGG7kFOgpGpgpcvflKvtAnO75NlwRSEsKkGyk91BC/Y5pyE1kDj9xzSUzC4tO3n+D/3YAr69jn0Q6D8VE/wfi0wHLQy+Yh8/Zenolj+/oXt1lyMgliwA9d9BBYHlJ9q6nKfuV4rUy5tPQ0FwXnNrkUYU3ALUxC6tZp9yT1htPxUGWGuFAAlcLL1DC5dt/YO9zL+l1smljNi3R5RUHPdF+b3QO2lZtQbsm+gTNuuQAmckIJYA2o0Bb9YCuIn34mPsi9og43XXqqCoyBT9gQogRM8kuDctWsfsN/if0Yo8CfH3ZNvPV73LM2XWoctSspEAV8Chz+SwduHAMS39if+wx1LQcLi5EDX3f84DV57qYrCKUDWs//IEBDhNf7TQEZBxNbDRLgAwdOkwK8yFGQKEvj6L3A9jAaM8RD/VYGCmm2fJ9oAsK5Z8ZovBUD9F7+eyAviBOAdf+O/XzFh7DiCf6TVJnGU8PJTZTAUtDNRABQ/MRW41DuAwUV8SE+JAjdxp/Hay9QUZCpBWZKVn+7XIA1I8Bgf0y+bgoVcKeALDykKzgUE4BQkL7kLmoLEl8RrL9UpoIOEdqZqZUn56Z2QAbsWH8Vuro8jtwvq12NHCqBAt+KVoWBc3lwIBW+YFRiZ+MeXjpiCPdcFKADKT3XLPXfypICv/6LW84gR4NqvH7FJyBSZTMKWzjMhB2NHirfA2uWeJVLgIxS49j3pRndYKfhgZ/A4EQQ7caSA8lPdWkdmN39c4Z0OQAkc+UhACuzaC53mYSmgIreniTYkFAhqL1VRJgUX3P279gMXmnaY+J322YM/iTY8xP8P1F7qUsDs5te3NX9PQVJ+ylLgus9AVCcLW25r74KQ+JIA67rlnsw+biMTBUD9F0nBX5qA2hOY5fNZCliH1b8fCULiSxZAwYnm7ylciStwHygGnpCTKIQtvchHSCjgBc8800zcs/u4v/V+zixNXA5LUWBjiVqWAjBseXETX5IXPO3ZJnpb2RLwxU9ULeirGgVKPnuYOMgABbrNVJh93GwU8JU/VC3oK5UnQ7OUrM8uDFtACvRmm+wWSwFVC/qHpMBF81M7OhTwl0y4d5SjJZaCTPuqAW+byFpQKkYgE4A0WArEkRvMwEgQVOdCDvOkAKi9JGtBL4uggE8YfJCg9nocsjUdWYosQr7wkKwFfaYoYDdFJvitFbZ0BL2FvGWVJBq7j5upzkRCwT1FAeYXcD67JHI7FLTVUZptkisFQO0lWQ6rSMG2ZtgyJ24tJE0fsPu41SwFyR3+MZAUnFMUgHvlI7AUSH32JVE7dFM6F5KloJ6pWTC/ALICV5UC7bBF2ohSKNosBe0CKXhSoyBN2CJpRCmcC8luZTczlaDy5adkEfILRcE9dhKWAqWwxU/fiJLdx21loGCe3+mmKnAVKUgZtvQkTfzRlCK3j5uaAnheYw4UKHtrp8IpCWjsxG1ipqu6Q+c1LhOWaF+NAjZyE1NAWroQ7TEVCwLciJLbxExDgWhSEUrBM3Y2tghZXIH7RJlVSRN/sBElt4mp/X2KPyuYVGSSFbj70F4ID7b8tCG8/Iv9OCBXI2tEyd9fVgoCyaQisgJ3j6RgvBcip0BchBzxaj+TAt4TNqI0PS7BjO3jqkE+r9EhKaB2BV+xk7KRm5iCEa8uHXZKmvizsVOfNYfqxUpK8xpJKbilKHhAKWAdVmEHltt30bIfyEcna+JPzzbpszt4A0UC1OY1Uq4RvbN8oUpBtd0WVEAlJ7Xp+tz5ikYTf6ZZgCIFo5m9KlNKqAzygKLgETs3F7kJvyKc8OrWqISsuIm/Rc2FDKlvVJSKkNWnVlOll1dqFLA++wiNLpZBJETLfiP9Oq0m/rdEtwt5Ba7OvEaLErgeXWKBXYC10DGa1YGMArY+VzYAjYydiG4XMgp05jU6NAMzfbpOBL3GDtzKqLsBOe8i7ZLFTtRcyMmHrMIiZKEXxBHgrTMKrErBAPl6rA6VBIoNzLywib9Dl2MkX2wJyk9lXhAJ03PmOFdblYKZY+zDYqADi8zAnIqdhDUydgo3Rl9soRRoTa2GR1UFVK2RjVMws4p1dGkY7MfVtIF55PND0ib+5E+uFloIBXoagA3qUadg5ldDtQMLY2OhFJlW7DQ0oIZHWlOrBeMKNSiILDTeaoD6uLrzaMsoGCWZxQPQSJ0NNji/YOQFqd6/aVVO8VRlSFMgSdf30VYD9S71nF6IajwX8aX7UH9eYtmi4hx1L0g+qIehQJqo3WviHVjIUCa8tGUUyGMnJKWE5oIgJj1PNqoqpLTWlqfo8FYDTPfKu3E1Hk6BPHYC1qM1tVplXGGHpkAlP4X3I2JaXJ/H2iAULc0BaJrvAKVRVT5NgVpyRtBqgOpe2X8v4JBo141QqC1yAJrOO0B9XCFdfmorZibwfkRM98q9KFiUaZcsdho7CZoaoD6qivmkAK0wYLCHNi2ku1d27m25dklip5GTUIQGwBTU7L+KWTqk1UD1vTEV+dyvHuVnlE1JXdSb2645sJMtP7VtdDOBAdxq4F0b6NhJRSJ7R8J9Jx0vSHtY2zP3QYJbU/08VtDLVb975am6pgsEIM24QuizFPuP4haeoJerQmOqvQXKrRbvOykRkHJk7SvwXYpro/UmDG5Rs9iuCzM9wW6z1WD6vYpjJzFML/24wrAGfZvDfoqNwl9N073yatxTvbVDXUccO4kEINO4wvAB/ETLvlckFW/ThjT1pTpKM5NjxAPQEAFwnMwDO/ddSBDcmurH0kPF2OkdwW6V7ijNuNWz6uY/JsBavslhzkT4DAvCH8XdTEHsxIwHugKmCjButTh2YpBRA0gQX1mRgoBXHzG4qyrETv4t0lO93qLcanHsRBGQ68jaJ/DDZbBfCwi8838r3ncKd+t4T3WmKbx43ynRAM/MQwNIBK+wNlwqVn72RS2uYQ0gj6H7vQYys2haa0UMxLuFzaJ67IT3cjUEUwUS1A3KLIpiJ9Ox1gsaWevfg9pg/1U0ix3cSZCjbtA+ArrvFGnAXIGzhq4uIG2w4TZWI/TvqT/hsZMYjWaTnzoKDkCLNCDHyU8gXhAnAXR3795sly4smhm2FMYIsAQYC0PwuXLDox1vvYSB0UTylzaL7CIn7S/sZ2oHfVvaR59G3ThBwwlq3ymKA/gtwWJwhzgJ1DZ5//yj/QVjMX9VZQM1CAGANIDE1lFcORKZwKPZEgc2n9ugSfiIne7eaH2hC4sEczB4DZCGIlsrR5ZlHa2UNjI9Rh+Lnd6fA9ACibGYeOxEakAX1wAaflji858Ai51ug3PwL2y2CW9xnaDZXS1nqGR6+HDs5KIdgKKwijRWId+9ktCAVpWbKvAZAcdOAri0Ngyw2KltnJQxTDIXPMEyjzJwsU8/WsgsNprtT68BJII3YdcfmoDLAff7/gljFpXeAZ8Mt2BukSegdg8/Wmrf6StpAIEodpJJAq8BBKLYqT7WgOOvpAEkerCT8EHAm/jR9jYMo2V0v54GkICdhHfY7rncb/d7g6uvKgBjdODYKQoTcQ345wDETpEGDKa9rHLBxE6uigb8a+h/JFhH74BpL2c62KvZcQdswAv6v8Dff7t4fPgfasA3vvGNb/zD+A8o1ZV9V99mqgAAAABJRU5ErkJggg==;" vertex="1" parent="1">
          <mxGeometry x="1047" y="463.59" width="59.31" height="44.83" as="geometry" />
        </mxCell>
        <mxCell id="5NBlNRbaQXi-0YNgzeYX-52" value="" style="endArrow=none;dashed=1;html=1;dashPattern=1 3;strokeWidth=2;rounded=0;entryX=0.5;entryY=1;entryDx=0;entryDy=0;exitX=0.5;exitY=0;exitDx=0;exitDy=0;" edge="1" parent="1" source="5NBlNRbaQXi-0YNgzeYX-136" target="5NBlNRbaQXi-0YNgzeYX-49">
          <mxGeometry width="50" height="50" relative="1" as="geometry">
            <mxPoint x="956" y="940" as="sourcePoint" />
            <mxPoint x="956" y="690" as="targetPoint" />
            <Array as="points">
              <mxPoint x="942" y="405" />
            </Array>
          </mxGeometry>
        </mxCell>
        <mxCell id="5NBlNRbaQXi-0YNgzeYX-53" value="" style="rounded=1;whiteSpace=wrap;html=1;shadow=0;" vertex="1" parent="1">
          <mxGeometry x="776.8299999999999" y="340" width="60.34" height="60" as="geometry" />
        </mxCell>
        <mxCell id="5NBlNRbaQXi-0YNgzeYX-54" value="" style="rounded=1;whiteSpace=wrap;html=1;shadow=0;" vertex="1" parent="1">
          <mxGeometry x="786.8299999999999" y="331" width="60.34" height="60" as="geometry" />
        </mxCell>
        <mxCell id="5NBlNRbaQXi-0YNgzeYX-55" value="APP" style="rounded=1;whiteSpace=wrap;html=1;shadow=0;" vertex="1" parent="1">
          <mxGeometry x="796.8299999999999" y="320" width="60.34" height="60" as="geometry" />
        </mxCell>
        <mxCell id="5NBlNRbaQXi-0YNgzeYX-56" value="" style="rounded=1;whiteSpace=wrap;html=1;shadow=0;" vertex="1" parent="1">
          <mxGeometry x="1030.97" y="330" width="60.34" height="60" as="geometry" />
        </mxCell>
        <mxCell id="5NBlNRbaQXi-0YNgzeYX-57" value="" style="rounded=1;whiteSpace=wrap;html=1;shadow=0;" vertex="1" parent="1">
          <mxGeometry x="1040.97" y="321" width="60.34" height="60" as="geometry" />
        </mxCell>
        <mxCell id="5NBlNRbaQXi-0YNgzeYX-58" value="APP" style="rounded=1;whiteSpace=wrap;html=1;shadow=0;" vertex="1" parent="1">
          <mxGeometry x="1050.97" y="310" width="60.34" height="60" as="geometry" />
        </mxCell>
        <mxCell id="5NBlNRbaQXi-0YNgzeYX-69" style="edgeStyle=orthogonalEdgeStyle;rounded=0;orthogonalLoop=1;jettySize=auto;html=1;exitX=0.5;exitY=0;exitDx=0;exitDy=0;entryX=0.75;entryY=1;entryDx=0;entryDy=0;" edge="1" parent="1" source="5NBlNRbaQXi-0YNgzeYX-63" target="5NBlNRbaQXi-0YNgzeYX-65">
          <mxGeometry relative="1" as="geometry" />
        </mxCell>
        <mxCell id="5NBlNRbaQXi-0YNgzeYX-63" value="" style="shape=image;verticalLabelPosition=bottom;labelBackgroundColor=default;verticalAlign=top;aspect=fixed;imageAspect=0;image=data:image/png,iVBORw0KGgoAAAANSUhEUgAAAQIAAADDCAMAAABeUu/HAAAA21BMVEX////hPq/RY86zGqvQX83OV8vhOq7fKaquAKXQYM3gM6zPWsywAKjgLqvPWczPXMzzud/++v3+9/z87Pf98fnNUsrtmtH31OvTadDmar7xstzjT7Xrisv13/T35/ffmN3x1PDkWLj2y+fpecTcjdrodsP2zujwqdjuyu3ahNfntObWdtPkqeLrwergsN3skc30wOLkVbfhn9/YfdXwrNnmZr3VktG8QbXHacL02/PqgcfvotXsxevXeNTry+nOfsm/S7i4LrHYm9XEXb7Ldcbdp9q9RrbCVbvGY8AmC3o+AAARbklEQVR4nO1d50LjSAwmxSWOneDYoSeEpewSeq9LW1h4/yc6BzthijTFLbDH9+tucezxZ0mWNLI0M/ONb3zjG9/4Ktia21zcnPsx7WVMDZ2lZcsxTdOxKjedaS9mGuivOJ5ZSeCZs9NeT+nYWrScCgnrLJj2msqEv1SxzAoD05qb9rpKQ3DgeRwB79pQ2Zr22koBpwGUIKyH015f0fCjdwAoAGM4ztK011go+gcOrAG0WexNe52FYWsT1wBaGw78aa+1CEg1gNKGyr/nLgYqGkAJwua/ZRZVNYAiwfs57WXnh1kNDSDhLc9Pe+m5IJhDvCAVQbBWvr5ZnE+hASQc83Dat5AJ/uxROg0gYS1+3dgpmDNTawAJ07qZ9q2kw/y6p6wBplcxRWR9RbOopQGmtTY7EyxawkOuv5aToKUBjnUdP+IfFZHUOM4XSinNb3qOKgGm581NjJ1/IJIc01vrT/O21KGnAcv0o+0decLDD6Z0UxoIdbwgx1rkE0RLQhvqmJ88dppfV/eCTM85AF/3nXWhFH3m2Mk/XNPSgCXU8d1aFmmD452WeVvqCOcqOhqwKU6RzgnP5a1dlXRXGpi/1vGCzAOpZe9LnITPllKKNECdgEgDlLbNDk2hWax8otgpvNHSAOAdgKCzIjaLnyV2utLQgIrnyTWAOrnQLH6O2ElPAyr4OwDDT6EgTD926uukg63FVD5NuCh0ma3rqW7H95QJiLygldTe/WeOnSqKDETvgNMsz0ocO1Wss6nFTqciU0U8ppQaQKJ3JtaGaW3HHykIwUgDctkbnHVE2jCl7XhfLgSRBvzMy1p1rsWCMI3t+FBGQR4aQGJeHDtNYTu+I3YIHCv9OwDDjdhJWCt7O94XUBB5QblpAAlZgrXslBJKgWOdFZbZORSaxbL3nZC1ON51oQIpi53KNIsQBUVpAInemjh2KnE7HngY1lkpgrgkdhKOSoudgIuXlc4KhQlW01opKXYChKCcC4/wQ+wklGQWl7kHYZWYz/PnPoFZ5GMEq9TYvX8mchIcp4T4cY2nIGG+t1qOnzYrytmZTvFycMZTEOcz/Xq7e1yKTvii2MlcK/z6AAWJ7C00qu32r8IXMIIodrIKt4mLPAWJ/EcUVKvGdjk57p9oBr94MdhEKdgZUVCtG8Oil/COYBPThuKsQSLu1zwFiVsWU1CtthYGRa2BwiGSYLWKscqd4cJx/F/X3HXHFPxOKKg2jNVS3pNIgtUrIp3WP643mwkFKzwFySUnFFSr7fpeAcvg0VsDnAQv/5h9sN1qR3eVUHDAUTBm/eSDgsgs/i4nx73Ey4GX8yvB31sw6u9mbjX+hzmegoT1bZKCSBuO810JglN+PblSEBy3msmNKVBQr1JoVu/yXAuCJc5D8HLcaBpsd9uTG6pvxP8IUJCwvsFQMHISivdWZ4ujYKIBDAU3GhSU4SQAFOSTVw92201KtauN7fgvP3kKEtYBCkZOQsGx0yFHQS5bC4MNo83eS+Mk/htgfpJLrkIUVBvdYp0EgILMlWn+3o4B3Ezjd/xn3vyMLwlTEL1OG7dZ1yQAQEHGTGqw22g1oBtp7MQH8Lo3vuRuF/xhBOOkOCfhR84UDDZanAbIKRjX/gwWmsiP68ZuxjtFsYWvRx+IBowpWIiPAgTvY59/t4udoFlU7DTPuchO2rqDcLcNa8AYCQWA4BF7esGJgVFobBRiFgEK0u0x9je6mAawFEgu+auOnagYJ6HHr2clzXmGqAATiA8FWKcv6R8bmDS1dvJ3EgAKrlOcZtiVE9Bux8dKKYhWtYNqQ/4J1j63HjMFBQG24o+lN+vHyXsNoIC/5LCNaUO7mnOCNeApWNc/yy72LktQNxaGk4fHCx7EeriBakPOCdaQX8+m/lnYKJd5bsb2gDgYoABkXeAktPI0iwAFi/pnOcFfho1m+5j27AAKENZ3US8jzwQrX/9lnumfZRujgNKABID5wVjvl+Ek8PVfqSiAn1a7S2lAAsD84Je8xc1iM6cEK0BBir0UKNBvNI1j0GwBFAgu6a/isVM+CdYO3ygrFwoiDdhDXuCA+TkSnby308K0IRcnwefKwsXrgcFS0GhBGpCgw1OwLD79EDWLeSRYfXY50vVAYHMdC6IXt89vXsguKXQSsiZY/eUCKBhnBhAA+zfSK9zhTkJzoL9gCnzlTwoKjhkKFoRH8xSY8kv4uJNgZAydgK8D9E3MMfPm0qXAUbkI6iQ0qtmMYi4U7LIvb+HRfH2HYtXdHuIkNLP5y3zxU0Xf7WIpqAuP5jf1VQsPO7CTIFE8GfjKHzM7BU3h0RwDGrWXV6BZNDKFjgAF+m+ZIbMuQ3g0QIGG7kFOgpGpgpcvflKvtAnO75NlwRSEsKkGyk91BC/Y5pyE1kDj9xzSUzC4tO3n+D/3YAr69jn0Q6D8VE/wfi0wHLQy+Yh8/Zenolj+/oXt1lyMgliwA9d9BBYHlJ9q6nKfuV4rUy5tPQ0FwXnNrkUYU3ALUxC6tZp9yT1htPxUGWGuFAAlcLL1DC5dt/YO9zL+l1smljNi3R5RUHPdF+b3QO2lZtQbsm+gTNuuQAmckIJYA2o0Bb9YCuIn34mPsi9og43XXqqCoyBT9gQogRM8kuDctWsfsN/if0Yo8CfH3ZNvPV73LM2XWoctSspEAV8Chz+SwduHAMS39if+wx1LQcLi5EDX3f84DV57qYrCKUDWs//IEBDhNf7TQEZBxNbDRLgAwdOkwK8yFGQKEvj6L3A9jAaM8RD/VYGCmm2fJ9oAsK5Z8ZovBUD9F7+eyAviBOAdf+O/XzFh7DiCf6TVJnGU8PJTZTAUtDNRABQ/MRW41DuAwUV8SE+JAjdxp/Hay9QUZCpBWZKVn+7XIA1I8Bgf0y+bgoVcKeALDykKzgUE4BQkL7kLmoLEl8RrL9UpoIOEdqZqZUn56Z2QAbsWH8Vuro8jtwvq12NHCqBAt+KVoWBc3lwIBW+YFRiZ+MeXjpiCPdcFKADKT3XLPXfypICv/6LW84gR4NqvH7FJyBSZTMKWzjMhB2NHirfA2uWeJVLgIxS49j3pRndYKfhgZ/A4EQQ7caSA8lPdWkdmN39c4Z0OQAkc+UhACuzaC53mYSmgIreniTYkFAhqL1VRJgUX3P279gMXmnaY+J322YM/iTY8xP8P1F7qUsDs5te3NX9PQVJ+ylLgus9AVCcLW25r74KQ+JIA67rlnsw+biMTBUD9F0nBX5qA2hOY5fNZCliH1b8fCULiSxZAwYnm7ylciStwHygGnpCTKIQtvchHSCjgBc8800zcs/u4v/V+zixNXA5LUWBjiVqWAjBseXETX5IXPO3ZJnpb2RLwxU9ULeirGgVKPnuYOMgABbrNVJh93GwU8JU/VC3oK5UnQ7OUrM8uDFtACvRmm+wWSwFVC/qHpMBF81M7OhTwl0y4d5SjJZaCTPuqAW+byFpQKkYgE4A0WArEkRvMwEgQVOdCDvOkAKi9JGtBL4uggE8YfJCg9nocsjUdWYosQr7wkKwFfaYoYDdFJvitFbZ0BL2FvGWVJBq7j5upzkRCwT1FAeYXcD67JHI7FLTVUZptkisFQO0lWQ6rSMG2ZtgyJ24tJE0fsPu41SwFyR3+MZAUnFMUgHvlI7AUSH32JVE7dFM6F5KloJ6pWTC/ALICV5UC7bBF2ohSKNosBe0CKXhSoyBN2CJpRCmcC8luZTczlaDy5adkEfILRcE9dhKWAqWwxU/fiJLdx21loGCe3+mmKnAVKUgZtvQkTfzRlCK3j5uaAnheYw4UKHtrp8IpCWjsxG1ipqu6Q+c1LhOWaF+NAjZyE1NAWroQ7TEVCwLciJLbxExDgWhSEUrBM3Y2tghZXIH7RJlVSRN/sBElt4mp/X2KPyuYVGSSFbj70F4ID7b8tCG8/Iv9OCBXI2tEyd9fVgoCyaQisgJ3j6RgvBcip0BchBzxaj+TAt4TNqI0PS7BjO3jqkE+r9EhKaB2BV+xk7KRm5iCEa8uHXZKmvizsVOfNYfqxUpK8xpJKbilKHhAKWAdVmEHltt30bIfyEcna+JPzzbpszt4A0UC1OY1Uq4RvbN8oUpBtd0WVEAlJ7Xp+tz5ikYTf6ZZgCIFo5m9KlNKqAzygKLgETs3F7kJvyKc8OrWqISsuIm/Rc2FDKlvVJSKkNWnVlOll1dqFLA++wiNLpZBJETLfiP9Oq0m/rdEtwt5Ba7OvEaLErgeXWKBXYC10DGa1YGMArY+VzYAjYydiG4XMgp05jU6NAMzfbpOBL3GDtzKqLsBOe8i7ZLFTtRcyMmHrMIiZKEXxBHgrTMKrErBAPl6rA6VBIoNzLywib9Dl2MkX2wJyk9lXhAJ03PmOFdblYKZY+zDYqADi8zAnIqdhDUydgo3Rl9soRRoTa2GR1UFVK2RjVMws4p1dGkY7MfVtIF55PND0ib+5E+uFloIBXoagA3qUadg5ldDtQMLY2OhFJlW7DQ0oIZHWlOrBeMKNSiILDTeaoD6uLrzaMsoGCWZxQPQSJ0NNji/YOQFqd6/aVVO8VRlSFMgSdf30VYD9S71nF6IajwX8aX7UH9eYtmi4hx1L0g+qIehQJqo3WviHVjIUCa8tGUUyGMnJKWE5oIgJj1PNqoqpLTWlqfo8FYDTPfKu3E1Hk6BPHYC1qM1tVplXGGHpkAlP4X3I2JaXJ/H2iAULc0BaJrvAKVRVT5NgVpyRtBqgOpe2X8v4JBo141QqC1yAJrOO0B9XCFdfmorZibwfkRM98q9KFiUaZcsdho7CZoaoD6qivmkAK0wYLCHNi2ku1d27m25dklip5GTUIQGwBTU7L+KWTqk1UD1vTEV+dyvHuVnlE1JXdSb2645sJMtP7VtdDOBAdxq4F0b6NhJRSJ7R8J9Jx0vSHtY2zP3QYJbU/08VtDLVb975am6pgsEIM24QuizFPuP4haeoJerQmOqvQXKrRbvOykRkHJk7SvwXYpro/UmDG5Rs9iuCzM9wW6z1WD6vYpjJzFML/24wrAGfZvDfoqNwl9N073yatxTvbVDXUccO4kEINO4wvAB/ETLvlckFW/ThjT1pTpKM5NjxAPQEAFwnMwDO/ddSBDcmurH0kPF2OkdwW6V7ijNuNWz6uY/JsBavslhzkT4DAvCH8XdTEHsxIwHugKmCjButTh2YpBRA0gQX1mRgoBXHzG4qyrETv4t0lO93qLcanHsRBGQ68jaJ/DDZbBfCwi8838r3ncKd+t4T3WmKbx43ynRAM/MQwNIBK+wNlwqVn72RS2uYQ0gj6H7vQYys2haa0UMxLuFzaJ67IT3cjUEUwUS1A3KLIpiJ9Ox1gsaWevfg9pg/1U0ix3cSZCjbtA+ArrvFGnAXIGzhq4uIG2w4TZWI/TvqT/hsZMYjWaTnzoKDkCLNCDHyU8gXhAnAXR3795sly4smhm2FMYIsAQYC0PwuXLDox1vvYSB0UTylzaL7CIn7S/sZ2oHfVvaR59G3ThBwwlq3ymKA/gtwWJwhzgJ1DZ5//yj/QVjMX9VZQM1CAGANIDE1lFcORKZwKPZEgc2n9ugSfiIne7eaH2hC4sEczB4DZCGIlsrR5ZlHa2UNjI9Rh+Lnd6fA9ACibGYeOxEakAX1wAaflji858Ai51ug3PwL2y2CW9xnaDZXS1nqGR6+HDs5KIdgKKwijRWId+9ktCAVpWbKvAZAcdOAri0Ngyw2KltnJQxTDIXPMEyjzJwsU8/WsgsNprtT68BJII3YdcfmoDLAff7/gljFpXeAZ8Mt2BukSegdg8/Wmrf6StpAIEodpJJAq8BBKLYqT7WgOOvpAEkerCT8EHAm/jR9jYMo2V0v54GkICdhHfY7rncb/d7g6uvKgBjdODYKQoTcQ345wDETpEGDKa9rHLBxE6uigb8a+h/JFhH74BpL2c62KvZcQdswAv6v8Dff7t4fPgfasA3vvGNb/zD+A8o1ZV9V99mqgAAAABJRU5ErkJggg==;" vertex="1" parent="1">
          <mxGeometry x="1220.5100000000002" y="790" width="59.31" height="44.83" as="geometry" />
        </mxCell>
        <mxCell id="5NBlNRbaQXi-0YNgzeYX-65" value="" style="rounded=1;whiteSpace=wrap;html=1;shadow=0;" vertex="1" parent="1">
          <mxGeometry x="1205" y="651" width="60.34" height="60" as="geometry" />
        </mxCell>
        <mxCell id="5NBlNRbaQXi-0YNgzeYX-66" value="" style="rounded=1;whiteSpace=wrap;html=1;shadow=0;" vertex="1" parent="1">
          <mxGeometry x="1215" y="642" width="60.34" height="60" as="geometry" />
        </mxCell>
        <mxCell id="5NBlNRbaQXi-0YNgzeYX-67" value="APP" style="rounded=1;whiteSpace=wrap;html=1;shadow=0;" vertex="1" parent="1">
          <mxGeometry x="1225" y="631" width="60.34" height="60" as="geometry" />
        </mxCell>
        <mxCell id="5NBlNRbaQXi-0YNgzeYX-70" value="" style="rounded=0;whiteSpace=wrap;html=1;fillColor=#cce5ff;strokeColor=#36393d;" vertex="1" parent="1">
          <mxGeometry x="685" y="601" width="475" height="280" as="geometry" />
        </mxCell>
        <mxCell id="5NBlNRbaQXi-0YNgzeYX-71" style="edgeStyle=orthogonalEdgeStyle;rounded=0;orthogonalLoop=1;jettySize=auto;html=1;exitX=0.5;exitY=0;exitDx=0;exitDy=0;entryX=0.75;entryY=1;entryDx=0;entryDy=0;" edge="1" parent="1" source="5NBlNRbaQXi-0YNgzeYX-72" target="5NBlNRbaQXi-0YNgzeYX-73">
          <mxGeometry relative="1" as="geometry" />
        </mxCell>
        <mxCell id="5NBlNRbaQXi-0YNgzeYX-72" value="" style="shape=image;verticalLabelPosition=bottom;labelBackgroundColor=default;verticalAlign=top;aspect=fixed;imageAspect=0;image=data:image/png,iVBORw0KGgoAAAANSUhEUgAAAQIAAADDCAMAAABeUu/HAAAA21BMVEX////hPq/RY86zGqvQX83OV8vhOq7fKaquAKXQYM3gM6zPWsywAKjgLqvPWczPXMzzud/++v3+9/z87Pf98fnNUsrtmtH31OvTadDmar7xstzjT7Xrisv13/T35/ffmN3x1PDkWLj2y+fpecTcjdrodsP2zujwqdjuyu3ahNfntObWdtPkqeLrwergsN3skc30wOLkVbfhn9/YfdXwrNnmZr3VktG8QbXHacL02/PqgcfvotXsxevXeNTry+nOfsm/S7i4LrHYm9XEXb7Ldcbdp9q9RrbCVbvGY8AmC3o+AAARbklEQVR4nO1d50LjSAwmxSWOneDYoSeEpewSeq9LW1h4/yc6BzthijTFLbDH9+tucezxZ0mWNLI0M/ONb3zjG9/4Ktia21zcnPsx7WVMDZ2lZcsxTdOxKjedaS9mGuivOJ5ZSeCZs9NeT+nYWrScCgnrLJj2msqEv1SxzAoD05qb9rpKQ3DgeRwB79pQ2Zr22koBpwGUIKyH015f0fCjdwAoAGM4ztK011go+gcOrAG0WexNe52FYWsT1wBaGw78aa+1CEg1gNKGyr/nLgYqGkAJwua/ZRZVNYAiwfs57WXnh1kNDSDhLc9Pe+m5IJhDvCAVQbBWvr5ZnE+hASQc83Dat5AJ/uxROg0gYS1+3dgpmDNTawAJ07qZ9q2kw/y6p6wBplcxRWR9RbOopQGmtTY7EyxawkOuv5aToKUBjnUdP+IfFZHUOM4XSinNb3qOKgGm581NjJ1/IJIc01vrT/O21KGnAcv0o+0decLDD6Z0UxoIdbwgx1rkE0RLQhvqmJ88dppfV/eCTM85AF/3nXWhFH3m2Mk/XNPSgCXU8d1aFmmD452WeVvqCOcqOhqwKU6RzgnP5a1dlXRXGpi/1vGCzAOpZe9LnITPllKKNECdgEgDlLbNDk2hWax8otgpvNHSAOAdgKCzIjaLnyV2utLQgIrnyTWAOrnQLH6O2ElPAyr4OwDDT6EgTD926uukg63FVD5NuCh0ma3rqW7H95QJiLygldTe/WeOnSqKDETvgNMsz0ocO1Wss6nFTqciU0U8ppQaQKJ3JtaGaW3HHykIwUgDctkbnHVE2jCl7XhfLgSRBvzMy1p1rsWCMI3t+FBGQR4aQGJeHDtNYTu+I3YIHCv9OwDDjdhJWCt7O94XUBB5QblpAAlZgrXslBJKgWOdFZbZORSaxbL3nZC1ON51oQIpi53KNIsQBUVpAInemjh2KnE7HngY1lkpgrgkdhKOSoudgIuXlc4KhQlW01opKXYChKCcC4/wQ+wklGQWl7kHYZWYz/PnPoFZ5GMEq9TYvX8mchIcp4T4cY2nIGG+t1qOnzYrytmZTvFycMZTEOcz/Xq7e1yKTvii2MlcK/z6AAWJ7C00qu32r8IXMIIodrIKt4mLPAWJ/EcUVKvGdjk57p9oBr94MdhEKdgZUVCtG8Oil/COYBPThuKsQSLu1zwFiVsWU1CtthYGRa2BwiGSYLWKscqd4cJx/F/X3HXHFPxOKKg2jNVS3pNIgtUrIp3WP643mwkFKzwFySUnFFSr7fpeAcvg0VsDnAQv/5h9sN1qR3eVUHDAUTBm/eSDgsgs/i4nx73Ey4GX8yvB31sw6u9mbjX+hzmegoT1bZKCSBuO810JglN+PblSEBy3msmNKVBQr1JoVu/yXAuCJc5D8HLcaBpsd9uTG6pvxP8IUJCwvsFQMHISivdWZ4ujYKIBDAU3GhSU4SQAFOSTVw92201KtauN7fgvP3kKEtYBCkZOQsGx0yFHQS5bC4MNo83eS+Mk/htgfpJLrkIUVBvdYp0EgILMlWn+3o4B3Ezjd/xn3vyMLwlTEL1OG7dZ1yQAQEHGTGqw22g1oBtp7MQH8Lo3vuRuF/xhBOOkOCfhR84UDDZanAbIKRjX/gwWmsiP68ZuxjtFsYWvRx+IBowpWIiPAgTvY59/t4udoFlU7DTPuchO2rqDcLcNa8AYCQWA4BF7esGJgVFobBRiFgEK0u0x9je6mAawFEgu+auOnagYJ6HHr2clzXmGqAATiA8FWKcv6R8bmDS1dvJ3EgAKrlOcZtiVE9Bux8dKKYhWtYNqQ/4J1j63HjMFBQG24o+lN+vHyXsNoIC/5LCNaUO7mnOCNeApWNc/yy72LktQNxaGk4fHCx7EeriBakPOCdaQX8+m/lnYKJd5bsb2gDgYoABkXeAktPI0iwAFi/pnOcFfho1m+5j27AAKENZ3US8jzwQrX/9lnumfZRujgNKABID5wVjvl+Ek8PVfqSiAn1a7S2lAAsD84Je8xc1iM6cEK0BBir0UKNBvNI1j0GwBFAgu6a/isVM+CdYO3ygrFwoiDdhDXuCA+TkSnby308K0IRcnwefKwsXrgcFS0GhBGpCgw1OwLD79EDWLeSRYfXY50vVAYHMdC6IXt89vXsguKXQSsiZY/eUCKBhnBhAA+zfSK9zhTkJzoL9gCnzlTwoKjhkKFoRH8xSY8kv4uJNgZAydgK8D9E3MMfPm0qXAUbkI6iQ0qtmMYi4U7LIvb+HRfH2HYtXdHuIkNLP5y3zxU0Xf7WIpqAuP5jf1VQsPO7CTIFE8GfjKHzM7BU3h0RwDGrWXV6BZNDKFjgAF+m+ZIbMuQ3g0QIGG7kFOgpGpgpcvflKvtAnO75NlwRSEsKkGyk91BC/Y5pyE1kDj9xzSUzC4tO3n+D/3YAr69jn0Q6D8VE/wfi0wHLQy+Yh8/Zenolj+/oXt1lyMgliwA9d9BBYHlJ9q6nKfuV4rUy5tPQ0FwXnNrkUYU3ALUxC6tZp9yT1htPxUGWGuFAAlcLL1DC5dt/YO9zL+l1smljNi3R5RUHPdF+b3QO2lZtQbsm+gTNuuQAmckIJYA2o0Bb9YCuIn34mPsi9og43XXqqCoyBT9gQogRM8kuDctWsfsN/if0Yo8CfH3ZNvPV73LM2XWoctSspEAV8Chz+SwduHAMS39if+wx1LQcLi5EDX3f84DV57qYrCKUDWs//IEBDhNf7TQEZBxNbDRLgAwdOkwK8yFGQKEvj6L3A9jAaM8RD/VYGCmm2fJ9oAsK5Z8ZovBUD9F7+eyAviBOAdf+O/XzFh7DiCf6TVJnGU8PJTZTAUtDNRABQ/MRW41DuAwUV8SE+JAjdxp/Hay9QUZCpBWZKVn+7XIA1I8Bgf0y+bgoVcKeALDykKzgUE4BQkL7kLmoLEl8RrL9UpoIOEdqZqZUn56Z2QAbsWH8Vuro8jtwvq12NHCqBAt+KVoWBc3lwIBW+YFRiZ+MeXjpiCPdcFKADKT3XLPXfypICv/6LW84gR4NqvH7FJyBSZTMKWzjMhB2NHirfA2uWeJVLgIxS49j3pRndYKfhgZ/A4EQQ7caSA8lPdWkdmN39c4Z0OQAkc+UhACuzaC53mYSmgIreniTYkFAhqL1VRJgUX3P279gMXmnaY+J322YM/iTY8xP8P1F7qUsDs5te3NX9PQVJ+ylLgus9AVCcLW25r74KQ+JIA67rlnsw+biMTBUD9F0nBX5qA2hOY5fNZCliH1b8fCULiSxZAwYnm7ylciStwHygGnpCTKIQtvchHSCjgBc8800zcs/u4v/V+zixNXA5LUWBjiVqWAjBseXETX5IXPO3ZJnpb2RLwxU9ULeirGgVKPnuYOMgABbrNVJh93GwU8JU/VC3oK5UnQ7OUrM8uDFtACvRmm+wWSwFVC/qHpMBF81M7OhTwl0y4d5SjJZaCTPuqAW+byFpQKkYgE4A0WArEkRvMwEgQVOdCDvOkAKi9JGtBL4uggE8YfJCg9nocsjUdWYosQr7wkKwFfaYoYDdFJvitFbZ0BL2FvGWVJBq7j5upzkRCwT1FAeYXcD67JHI7FLTVUZptkisFQO0lWQ6rSMG2ZtgyJ24tJE0fsPu41SwFyR3+MZAUnFMUgHvlI7AUSH32JVE7dFM6F5KloJ6pWTC/ALICV5UC7bBF2ohSKNosBe0CKXhSoyBN2CJpRCmcC8luZTczlaDy5adkEfILRcE9dhKWAqWwxU/fiJLdx21loGCe3+mmKnAVKUgZtvQkTfzRlCK3j5uaAnheYw4UKHtrp8IpCWjsxG1ipqu6Q+c1LhOWaF+NAjZyE1NAWroQ7TEVCwLciJLbxExDgWhSEUrBM3Y2tghZXIH7RJlVSRN/sBElt4mp/X2KPyuYVGSSFbj70F4ID7b8tCG8/Iv9OCBXI2tEyd9fVgoCyaQisgJ3j6RgvBcip0BchBzxaj+TAt4TNqI0PS7BjO3jqkE+r9EhKaB2BV+xk7KRm5iCEa8uHXZKmvizsVOfNYfqxUpK8xpJKbilKHhAKWAdVmEHltt30bIfyEcna+JPzzbpszt4A0UC1OY1Uq4RvbN8oUpBtd0WVEAlJ7Xp+tz5ikYTf6ZZgCIFo5m9KlNKqAzygKLgETs3F7kJvyKc8OrWqISsuIm/Rc2FDKlvVJSKkNWnVlOll1dqFLA++wiNLpZBJETLfiP9Oq0m/rdEtwt5Ba7OvEaLErgeXWKBXYC10DGa1YGMArY+VzYAjYydiG4XMgp05jU6NAMzfbpOBL3GDtzKqLsBOe8i7ZLFTtRcyMmHrMIiZKEXxBHgrTMKrErBAPl6rA6VBIoNzLywib9Dl2MkX2wJyk9lXhAJ03PmOFdblYKZY+zDYqADi8zAnIqdhDUydgo3Rl9soRRoTa2GR1UFVK2RjVMws4p1dGkY7MfVtIF55PND0ib+5E+uFloIBXoagA3qUadg5ldDtQMLY2OhFJlW7DQ0oIZHWlOrBeMKNSiILDTeaoD6uLrzaMsoGCWZxQPQSJ0NNji/YOQFqd6/aVVO8VRlSFMgSdf30VYD9S71nF6IajwX8aX7UH9eYtmi4hx1L0g+qIehQJqo3WviHVjIUCa8tGUUyGMnJKWE5oIgJj1PNqoqpLTWlqfo8FYDTPfKu3E1Hk6BPHYC1qM1tVplXGGHpkAlP4X3I2JaXJ/H2iAULc0BaJrvAKVRVT5NgVpyRtBqgOpe2X8v4JBo141QqC1yAJrOO0B9XCFdfmorZibwfkRM98q9KFiUaZcsdho7CZoaoD6qivmkAK0wYLCHNi2ku1d27m25dklip5GTUIQGwBTU7L+KWTqk1UD1vTEV+dyvHuVnlE1JXdSb2645sJMtP7VtdDOBAdxq4F0b6NhJRSJ7R8J9Jx0vSHtY2zP3QYJbU/08VtDLVb975am6pgsEIM24QuizFPuP4haeoJerQmOqvQXKrRbvOykRkHJk7SvwXYpro/UmDG5Rs9iuCzM9wW6z1WD6vYpjJzFML/24wrAGfZvDfoqNwl9N073yatxTvbVDXUccO4kEINO4wvAB/ETLvlckFW/ThjT1pTpKM5NjxAPQEAFwnMwDO/ddSBDcmurH0kPF2OkdwW6V7ijNuNWz6uY/JsBavslhzkT4DAvCH8XdTEHsxIwHugKmCjButTh2YpBRA0gQX1mRgoBXHzG4qyrETv4t0lO93qLcanHsRBGQ68jaJ/DDZbBfCwi8838r3ncKd+t4T3WmKbx43ynRAM/MQwNIBK+wNlwqVn72RS2uYQ0gj6H7vQYys2haa0UMxLuFzaJ67IT3cjUEUwUS1A3KLIpiJ9Ox1gsaWevfg9pg/1U0ix3cSZCjbtA+ArrvFGnAXIGzhq4uIG2w4TZWI/TvqT/hsZMYjWaTnzoKDkCLNCDHyU8gXhAnAXR3795sly4smhm2FMYIsAQYC0PwuXLDox1vvYSB0UTylzaL7CIn7S/sZ2oHfVvaR59G3ThBwwlq3ymKA/gtwWJwhzgJ1DZ5//yj/QVjMX9VZQM1CAGANIDE1lFcORKZwKPZEgc2n9ugSfiIne7eaH2hC4sEczB4DZCGIlsrR5ZlHa2UNjI9Rh+Lnd6fA9ACibGYeOxEakAX1wAaflji858Ai51ug3PwL2y2CW9xnaDZXS1nqGR6+HDs5KIdgKKwijRWId+9ktCAVpWbKvAZAcdOAri0Ngyw2KltnJQxTDIXPMEyjzJwsU8/WsgsNprtT68BJII3YdcfmoDLAff7/gljFpXeAZ8Mt2BukSegdg8/Wmrf6StpAIEodpJJAq8BBKLYqT7WgOOvpAEkerCT8EHAm/jR9jYMo2V0v54GkICdhHfY7rncb/d7g6uvKgBjdODYKQoTcQ345wDETpEGDKa9rHLBxE6uigb8a+h/JFhH74BpL2c62KvZcQdswAv6v8Dff7t4fPgfasA3vvGNb/zD+A8o1ZV9V99mqgAAAABJRU5ErkJggg==;" vertex="1" parent="1">
          <mxGeometry x="740.3400000000001" y="790" width="59.31" height="44.83" as="geometry" />
        </mxCell>
        <mxCell id="5NBlNRbaQXi-0YNgzeYX-73" value="" style="rounded=1;whiteSpace=wrap;html=1;shadow=0;" vertex="1" parent="1">
          <mxGeometry x="724.8299999999999" y="651" width="60.34" height="60" as="geometry" />
        </mxCell>
        <mxCell id="5NBlNRbaQXi-0YNgzeYX-74" value="" style="rounded=1;whiteSpace=wrap;html=1;shadow=0;" vertex="1" parent="1">
          <mxGeometry x="734.8299999999999" y="642" width="60.34" height="60" as="geometry" />
        </mxCell>
        <mxCell id="5NBlNRbaQXi-0YNgzeYX-75" value="APP" style="rounded=1;whiteSpace=wrap;html=1;shadow=0;" vertex="1" parent="1">
          <mxGeometry x="744.8299999999999" y="631" width="60.34" height="60" as="geometry" />
        </mxCell>
        <mxCell id="5NBlNRbaQXi-0YNgzeYX-77" style="edgeStyle=orthogonalEdgeStyle;rounded=0;orthogonalLoop=1;jettySize=auto;html=1;exitX=0.5;exitY=0;exitDx=0;exitDy=0;entryX=0.75;entryY=1;entryDx=0;entryDy=0;" edge="1" parent="1" source="5NBlNRbaQXi-0YNgzeYX-78" target="5NBlNRbaQXi-0YNgzeYX-79">
          <mxGeometry relative="1" as="geometry" />
        </mxCell>
        <mxCell id="5NBlNRbaQXi-0YNgzeYX-92" style="rounded=0;orthogonalLoop=1;jettySize=auto;html=1;exitX=0;exitY=0;exitDx=0;exitDy=0;entryX=1;entryY=1;entryDx=0;entryDy=0;strokeColor=#EA6B66;strokeWidth=2;" edge="1" parent="1" source="5NBlNRbaQXi-0YNgzeYX-78" target="5NBlNRbaQXi-0YNgzeYX-74">
          <mxGeometry relative="1" as="geometry" />
        </mxCell>
        <mxCell id="5NBlNRbaQXi-0YNgzeYX-93" style="rounded=0;orthogonalLoop=1;jettySize=auto;html=1;exitX=1;exitY=0;exitDx=0;exitDy=0;entryX=0;entryY=1;entryDx=0;entryDy=0;strokeColor=#EA6B66;strokeWidth=2;" edge="1" parent="1" source="5NBlNRbaQXi-0YNgzeYX-78" target="5NBlNRbaQXi-0YNgzeYX-85">
          <mxGeometry relative="1" as="geometry" />
        </mxCell>
        <mxCell id="5NBlNRbaQXi-0YNgzeYX-78" value="" style="shape=image;verticalLabelPosition=bottom;labelBackgroundColor=default;verticalAlign=top;aspect=fixed;imageAspect=0;image=data:image/png,iVBORw0KGgoAAAANSUhEUgAAAQIAAADDCAMAAABeUu/HAAAA21BMVEX////hPq/RY86zGqvQX83OV8vhOq7fKaquAKXQYM3gM6zPWsywAKjgLqvPWczPXMzzud/++v3+9/z87Pf98fnNUsrtmtH31OvTadDmar7xstzjT7Xrisv13/T35/ffmN3x1PDkWLj2y+fpecTcjdrodsP2zujwqdjuyu3ahNfntObWdtPkqeLrwergsN3skc30wOLkVbfhn9/YfdXwrNnmZr3VktG8QbXHacL02/PqgcfvotXsxevXeNTry+nOfsm/S7i4LrHYm9XEXb7Ldcbdp9q9RrbCVbvGY8AmC3o+AAARbklEQVR4nO1d50LjSAwmxSWOneDYoSeEpewSeq9LW1h4/yc6BzthijTFLbDH9+tucezxZ0mWNLI0M/ONb3zjG9/4Ktia21zcnPsx7WVMDZ2lZcsxTdOxKjedaS9mGuivOJ5ZSeCZs9NeT+nYWrScCgnrLJj2msqEv1SxzAoD05qb9rpKQ3DgeRwB79pQ2Zr22koBpwGUIKyH015f0fCjdwAoAGM4ztK011go+gcOrAG0WexNe52FYWsT1wBaGw78aa+1CEg1gNKGyr/nLgYqGkAJwua/ZRZVNYAiwfs57WXnh1kNDSDhLc9Pe+m5IJhDvCAVQbBWvr5ZnE+hASQc83Dat5AJ/uxROg0gYS1+3dgpmDNTawAJ07qZ9q2kw/y6p6wBplcxRWR9RbOopQGmtTY7EyxawkOuv5aToKUBjnUdP+IfFZHUOM4XSinNb3qOKgGm581NjJ1/IJIc01vrT/O21KGnAcv0o+0decLDD6Z0UxoIdbwgx1rkE0RLQhvqmJ88dppfV/eCTM85AF/3nXWhFH3m2Mk/XNPSgCXU8d1aFmmD452WeVvqCOcqOhqwKU6RzgnP5a1dlXRXGpi/1vGCzAOpZe9LnITPllKKNECdgEgDlLbNDk2hWax8otgpvNHSAOAdgKCzIjaLnyV2utLQgIrnyTWAOrnQLH6O2ElPAyr4OwDDT6EgTD926uukg63FVD5NuCh0ma3rqW7H95QJiLygldTe/WeOnSqKDETvgNMsz0ocO1Wss6nFTqciU0U8ppQaQKJ3JtaGaW3HHykIwUgDctkbnHVE2jCl7XhfLgSRBvzMy1p1rsWCMI3t+FBGQR4aQGJeHDtNYTu+I3YIHCv9OwDDjdhJWCt7O94XUBB5QblpAAlZgrXslBJKgWOdFZbZORSaxbL3nZC1ON51oQIpi53KNIsQBUVpAInemjh2KnE7HngY1lkpgrgkdhKOSoudgIuXlc4KhQlW01opKXYChKCcC4/wQ+wklGQWl7kHYZWYz/PnPoFZ5GMEq9TYvX8mchIcp4T4cY2nIGG+t1qOnzYrytmZTvFycMZTEOcz/Xq7e1yKTvii2MlcK/z6AAWJ7C00qu32r8IXMIIodrIKt4mLPAWJ/EcUVKvGdjk57p9oBr94MdhEKdgZUVCtG8Oil/COYBPThuKsQSLu1zwFiVsWU1CtthYGRa2BwiGSYLWKscqd4cJx/F/X3HXHFPxOKKg2jNVS3pNIgtUrIp3WP643mwkFKzwFySUnFFSr7fpeAcvg0VsDnAQv/5h9sN1qR3eVUHDAUTBm/eSDgsgs/i4nx73Ey4GX8yvB31sw6u9mbjX+hzmegoT1bZKCSBuO810JglN+PblSEBy3msmNKVBQr1JoVu/yXAuCJc5D8HLcaBpsd9uTG6pvxP8IUJCwvsFQMHISivdWZ4ujYKIBDAU3GhSU4SQAFOSTVw92201KtauN7fgvP3kKEtYBCkZOQsGx0yFHQS5bC4MNo83eS+Mk/htgfpJLrkIUVBvdYp0EgILMlWn+3o4B3Ezjd/xn3vyMLwlTEL1OG7dZ1yQAQEHGTGqw22g1oBtp7MQH8Lo3vuRuF/xhBOOkOCfhR84UDDZanAbIKRjX/gwWmsiP68ZuxjtFsYWvRx+IBowpWIiPAgTvY59/t4udoFlU7DTPuchO2rqDcLcNa8AYCQWA4BF7esGJgVFobBRiFgEK0u0x9je6mAawFEgu+auOnagYJ6HHr2clzXmGqAATiA8FWKcv6R8bmDS1dvJ3EgAKrlOcZtiVE9Bux8dKKYhWtYNqQ/4J1j63HjMFBQG24o+lN+vHyXsNoIC/5LCNaUO7mnOCNeApWNc/yy72LktQNxaGk4fHCx7EeriBakPOCdaQX8+m/lnYKJd5bsb2gDgYoABkXeAktPI0iwAFi/pnOcFfho1m+5j27AAKENZ3US8jzwQrX/9lnumfZRujgNKABID5wVjvl+Ek8PVfqSiAn1a7S2lAAsD84Je8xc1iM6cEK0BBir0UKNBvNI1j0GwBFAgu6a/isVM+CdYO3ygrFwoiDdhDXuCA+TkSnby308K0IRcnwefKwsXrgcFS0GhBGpCgw1OwLD79EDWLeSRYfXY50vVAYHMdC6IXt89vXsguKXQSsiZY/eUCKBhnBhAA+zfSK9zhTkJzoL9gCnzlTwoKjhkKFoRH8xSY8kv4uJNgZAydgK8D9E3MMfPm0qXAUbkI6iQ0qtmMYi4U7LIvb+HRfH2HYtXdHuIkNLP5y3zxU0Xf7WIpqAuP5jf1VQsPO7CTIFE8GfjKHzM7BU3h0RwDGrWXV6BZNDKFjgAF+m+ZIbMuQ3g0QIGG7kFOgpGpgpcvflKvtAnO75NlwRSEsKkGyk91BC/Y5pyE1kDj9xzSUzC4tO3n+D/3YAr69jn0Q6D8VE/wfi0wHLQy+Yh8/Zenolj+/oXt1lyMgliwA9d9BBYHlJ9q6nKfuV4rUy5tPQ0FwXnNrkUYU3ALUxC6tZp9yT1htPxUGWGuFAAlcLL1DC5dt/YO9zL+l1smljNi3R5RUHPdF+b3QO2lZtQbsm+gTNuuQAmckIJYA2o0Bb9YCuIn34mPsi9og43XXqqCoyBT9gQogRM8kuDctWsfsN/if0Yo8CfH3ZNvPV73LM2XWoctSspEAV8Chz+SwduHAMS39if+wx1LQcLi5EDX3f84DV57qYrCKUDWs//IEBDhNf7TQEZBxNbDRLgAwdOkwK8yFGQKEvj6L3A9jAaM8RD/VYGCmm2fJ9oAsK5Z8ZovBUD9F7+eyAviBOAdf+O/XzFh7DiCf6TVJnGU8PJTZTAUtDNRABQ/MRW41DuAwUV8SE+JAjdxp/Hay9QUZCpBWZKVn+7XIA1I8Bgf0y+bgoVcKeALDykKzgUE4BQkL7kLmoLEl8RrL9UpoIOEdqZqZUn56Z2QAbsWH8Vuro8jtwvq12NHCqBAt+KVoWBc3lwIBW+YFRiZ+MeXjpiCPdcFKADKT3XLPXfypICv/6LW84gR4NqvH7FJyBSZTMKWzjMhB2NHirfA2uWeJVLgIxS49j3pRndYKfhgZ/A4EQQ7caSA8lPdWkdmN39c4Z0OQAkc+UhACuzaC53mYSmgIreniTYkFAhqL1VRJgUX3P279gMXmnaY+J322YM/iTY8xP8P1F7qUsDs5te3NX9PQVJ+ylLgus9AVCcLW25r74KQ+JIA67rlnsw+biMTBUD9F0nBX5qA2hOY5fNZCliH1b8fCULiSxZAwYnm7ylciStwHygGnpCTKIQtvchHSCjgBc8800zcs/u4v/V+zixNXA5LUWBjiVqWAjBseXETX5IXPO3ZJnpb2RLwxU9ULeirGgVKPnuYOMgABbrNVJh93GwU8JU/VC3oK5UnQ7OUrM8uDFtACvRmm+wWSwFVC/qHpMBF81M7OhTwl0y4d5SjJZaCTPuqAW+byFpQKkYgE4A0WArEkRvMwEgQVOdCDvOkAKi9JGtBL4uggE8YfJCg9nocsjUdWYosQr7wkKwFfaYoYDdFJvitFbZ0BL2FvGWVJBq7j5upzkRCwT1FAeYXcD67JHI7FLTVUZptkisFQO0lWQ6rSMG2ZtgyJ24tJE0fsPu41SwFyR3+MZAUnFMUgHvlI7AUSH32JVE7dFM6F5KloJ6pWTC/ALICV5UC7bBF2ohSKNosBe0CKXhSoyBN2CJpRCmcC8luZTczlaDy5adkEfILRcE9dhKWAqWwxU/fiJLdx21loGCe3+mmKnAVKUgZtvQkTfzRlCK3j5uaAnheYw4UKHtrp8IpCWjsxG1ipqu6Q+c1LhOWaF+NAjZyE1NAWroQ7TEVCwLciJLbxExDgWhSEUrBM3Y2tghZXIH7RJlVSRN/sBElt4mp/X2KPyuYVGSSFbj70F4ID7b8tCG8/Iv9OCBXI2tEyd9fVgoCyaQisgJ3j6RgvBcip0BchBzxaj+TAt4TNqI0PS7BjO3jqkE+r9EhKaB2BV+xk7KRm5iCEa8uHXZKmvizsVOfNYfqxUpK8xpJKbilKHhAKWAdVmEHltt30bIfyEcna+JPzzbpszt4A0UC1OY1Uq4RvbN8oUpBtd0WVEAlJ7Xp+tz5ikYTf6ZZgCIFo5m9KlNKqAzygKLgETs3F7kJvyKc8OrWqISsuIm/Rc2FDKlvVJSKkNWnVlOll1dqFLA++wiNLpZBJETLfiP9Oq0m/rdEtwt5Ba7OvEaLErgeXWKBXYC10DGa1YGMArY+VzYAjYydiG4XMgp05jU6NAMzfbpOBL3GDtzKqLsBOe8i7ZLFTtRcyMmHrMIiZKEXxBHgrTMKrErBAPl6rA6VBIoNzLywib9Dl2MkX2wJyk9lXhAJ03PmOFdblYKZY+zDYqADi8zAnIqdhDUydgo3Rl9soRRoTa2GR1UFVK2RjVMws4p1dGkY7MfVtIF55PND0ib+5E+uFloIBXoagA3qUadg5ldDtQMLY2OhFJlW7DQ0oIZHWlOrBeMKNSiILDTeaoD6uLrzaMsoGCWZxQPQSJ0NNji/YOQFqd6/aVVO8VRlSFMgSdf30VYD9S71nF6IajwX8aX7UH9eYtmi4hx1L0g+qIehQJqo3WviHVjIUCa8tGUUyGMnJKWE5oIgJj1PNqoqpLTWlqfo8FYDTPfKu3E1Hk6BPHYC1qM1tVplXGGHpkAlP4X3I2JaXJ/H2iAULc0BaJrvAKVRVT5NgVpyRtBqgOpe2X8v4JBo141QqC1yAJrOO0B9XCFdfmorZibwfkRM98q9KFiUaZcsdho7CZoaoD6qivmkAK0wYLCHNi2ku1d27m25dklip5GTUIQGwBTU7L+KWTqk1UD1vTEV+dyvHuVnlE1JXdSb2645sJMtP7VtdDOBAdxq4F0b6NhJRSJ7R8J9Jx0vSHtY2zP3QYJbU/08VtDLVb975am6pgsEIM24QuizFPuP4haeoJerQmOqvQXKrRbvOykRkHJk7SvwXYpro/UmDG5Rs9iuCzM9wW6z1WD6vYpjJzFML/24wrAGfZvDfoqNwl9N073yatxTvbVDXUccO4kEINO4wvAB/ETLvlckFW/ThjT1pTpKM5NjxAPQEAFwnMwDO/ddSBDcmurH0kPF2OkdwW6V7ijNuNWz6uY/JsBavslhzkT4DAvCH8XdTEHsxIwHugKmCjButTh2YpBRA0gQX1mRgoBXHzG4qyrETv4t0lO93qLcanHsRBGQ68jaJ/DDZbBfCwi8838r3ncKd+t4T3WmKbx43ynRAM/MQwNIBK+wNlwqVn72RS2uYQ0gj6H7vQYys2haa0UMxLuFzaJ67IT3cjUEUwUS1A3KLIpiJ9Ox1gsaWevfg9pg/1U0ix3cSZCjbtA+ArrvFGnAXIGzhq4uIG2w4TZWI/TvqT/hsZMYjWaTnzoKDkCLNCDHyU8gXhAnAXR3795sly4smhm2FMYIsAQYC0PwuXLDox1vvYSB0UTylzaL7CIn7S/sZ2oHfVvaR59G3ThBwwlq3ymKA/gtwWJwhzgJ1DZ5//yj/QVjMX9VZQM1CAGANIDE1lFcORKZwKPZEgc2n9ugSfiIne7eaH2hC4sEczB4DZCGIlsrR5ZlHa2UNjI9Rh+Lnd6fA9ACibGYeOxEakAX1wAaflji858Ai51ug3PwL2y2CW9xnaDZXS1nqGR6+HDs5KIdgKKwijRWId+9ktCAVpWbKvAZAcdOAri0Ngyw2KltnJQxTDIXPMEyjzJwsU8/WsgsNprtT68BJII3YdcfmoDLAff7/gljFpXeAZ8Mt2BukSegdg8/Wmrf6StpAIEodpJJAq8BBKLYqT7WgOOvpAEkerCT8EHAm/jR9jYMo2V0v54GkICdhHfY7rncb/d7g6uvKgBjdODYKQoTcQ345wDETpEGDKa9rHLBxE6uigb8a+h/JFhH74BpL2c62KvZcQdswAv6v8Dff7t4fPgfasA3vvGNb/zD+A8o1ZV9V99mqgAAAABJRU5ErkJggg==;" vertex="1" parent="1">
          <mxGeometry x="900.5100000000002" y="790" width="59.31" height="44.83" as="geometry" />
        </mxCell>
        <mxCell id="5NBlNRbaQXi-0YNgzeYX-79" value="" style="rounded=1;whiteSpace=wrap;html=1;shadow=0;" vertex="1" parent="1">
          <mxGeometry x="885" y="651" width="60.34" height="60" as="geometry" />
        </mxCell>
        <mxCell id="5NBlNRbaQXi-0YNgzeYX-80" value="" style="rounded=1;whiteSpace=wrap;html=1;shadow=0;" vertex="1" parent="1">
          <mxGeometry x="895" y="642" width="60.34" height="60" as="geometry" />
        </mxCell>
        <mxCell id="5NBlNRbaQXi-0YNgzeYX-81" value="APP" style="rounded=1;whiteSpace=wrap;html=1;shadow=0;" vertex="1" parent="1">
          <mxGeometry x="905" y="631" width="60.34" height="60" as="geometry" />
        </mxCell>
        <mxCell id="5NBlNRbaQXi-0YNgzeYX-83" style="edgeStyle=orthogonalEdgeStyle;rounded=0;orthogonalLoop=1;jettySize=auto;html=1;exitX=0.5;exitY=0;exitDx=0;exitDy=0;entryX=0.75;entryY=1;entryDx=0;entryDy=0;" edge="1" parent="1" source="5NBlNRbaQXi-0YNgzeYX-84" target="5NBlNRbaQXi-0YNgzeYX-85">
          <mxGeometry relative="1" as="geometry" />
        </mxCell>
        <mxCell id="5NBlNRbaQXi-0YNgzeYX-98" style="rounded=0;orthogonalLoop=1;jettySize=auto;html=1;exitX=0;exitY=0;exitDx=0;exitDy=0;entryX=1;entryY=1;entryDx=0;entryDy=0;strokeColor=#EA6B66;strokeWidth=2;" edge="1" parent="1" source="5NBlNRbaQXi-0YNgzeYX-84" target="5NBlNRbaQXi-0YNgzeYX-80">
          <mxGeometry relative="1" as="geometry" />
        </mxCell>
        <mxCell id="5NBlNRbaQXi-0YNgzeYX-100" style="rounded=0;orthogonalLoop=1;jettySize=auto;html=1;exitX=0;exitY=0;exitDx=0;exitDy=0;entryX=1;entryY=1;entryDx=0;entryDy=0;strokeColor=#EA6B66;strokeWidth=2;" edge="1" parent="1" source="5NBlNRbaQXi-0YNgzeYX-84" target="5NBlNRbaQXi-0YNgzeYX-75">
          <mxGeometry relative="1" as="geometry" />
        </mxCell>
        <mxCell id="5NBlNRbaQXi-0YNgzeYX-84" value="" style="shape=image;verticalLabelPosition=bottom;labelBackgroundColor=default;verticalAlign=top;aspect=fixed;imageAspect=0;image=data:image/png,iVBORw0KGgoAAAANSUhEUgAAAQIAAADDCAMAAABeUu/HAAAA21BMVEX////hPq/RY86zGqvQX83OV8vhOq7fKaquAKXQYM3gM6zPWsywAKjgLqvPWczPXMzzud/++v3+9/z87Pf98fnNUsrtmtH31OvTadDmar7xstzjT7Xrisv13/T35/ffmN3x1PDkWLj2y+fpecTcjdrodsP2zujwqdjuyu3ahNfntObWdtPkqeLrwergsN3skc30wOLkVbfhn9/YfdXwrNnmZr3VktG8QbXHacL02/PqgcfvotXsxevXeNTry+nOfsm/S7i4LrHYm9XEXb7Ldcbdp9q9RrbCVbvGY8AmC3o+AAARbklEQVR4nO1d50LjSAwmxSWOneDYoSeEpewSeq9LW1h4/yc6BzthijTFLbDH9+tucezxZ0mWNLI0M/ONb3zjG9/4Ktia21zcnPsx7WVMDZ2lZcsxTdOxKjedaS9mGuivOJ5ZSeCZs9NeT+nYWrScCgnrLJj2msqEv1SxzAoD05qb9rpKQ3DgeRwB79pQ2Zr22koBpwGUIKyH015f0fCjdwAoAGM4ztK011go+gcOrAG0WexNe52FYWsT1wBaGw78aa+1CEg1gNKGyr/nLgYqGkAJwua/ZRZVNYAiwfs57WXnh1kNDSDhLc9Pe+m5IJhDvCAVQbBWvr5ZnE+hASQc83Dat5AJ/uxROg0gYS1+3dgpmDNTawAJ07qZ9q2kw/y6p6wBplcxRWR9RbOopQGmtTY7EyxawkOuv5aToKUBjnUdP+IfFZHUOM4XSinNb3qOKgGm581NjJ1/IJIc01vrT/O21KGnAcv0o+0decLDD6Z0UxoIdbwgx1rkE0RLQhvqmJ88dppfV/eCTM85AF/3nXWhFH3m2Mk/XNPSgCXU8d1aFmmD452WeVvqCOcqOhqwKU6RzgnP5a1dlXRXGpi/1vGCzAOpZe9LnITPllKKNECdgEgDlLbNDk2hWax8otgpvNHSAOAdgKCzIjaLnyV2utLQgIrnyTWAOrnQLH6O2ElPAyr4OwDDT6EgTD926uukg63FVD5NuCh0ma3rqW7H95QJiLygldTe/WeOnSqKDETvgNMsz0ocO1Wss6nFTqciU0U8ppQaQKJ3JtaGaW3HHykIwUgDctkbnHVE2jCl7XhfLgSRBvzMy1p1rsWCMI3t+FBGQR4aQGJeHDtNYTu+I3YIHCv9OwDDjdhJWCt7O94XUBB5QblpAAlZgrXslBJKgWOdFZbZORSaxbL3nZC1ON51oQIpi53KNIsQBUVpAInemjh2KnE7HngY1lkpgrgkdhKOSoudgIuXlc4KhQlW01opKXYChKCcC4/wQ+wklGQWl7kHYZWYz/PnPoFZ5GMEq9TYvX8mchIcp4T4cY2nIGG+t1qOnzYrytmZTvFycMZTEOcz/Xq7e1yKTvii2MlcK/z6AAWJ7C00qu32r8IXMIIodrIKt4mLPAWJ/EcUVKvGdjk57p9oBr94MdhEKdgZUVCtG8Oil/COYBPThuKsQSLu1zwFiVsWU1CtthYGRa2BwiGSYLWKscqd4cJx/F/X3HXHFPxOKKg2jNVS3pNIgtUrIp3WP643mwkFKzwFySUnFFSr7fpeAcvg0VsDnAQv/5h9sN1qR3eVUHDAUTBm/eSDgsgs/i4nx73Ey4GX8yvB31sw6u9mbjX+hzmegoT1bZKCSBuO810JglN+PblSEBy3msmNKVBQr1JoVu/yXAuCJc5D8HLcaBpsd9uTG6pvxP8IUJCwvsFQMHISivdWZ4ujYKIBDAU3GhSU4SQAFOSTVw92201KtauN7fgvP3kKEtYBCkZOQsGx0yFHQS5bC4MNo83eS+Mk/htgfpJLrkIUVBvdYp0EgILMlWn+3o4B3Ezjd/xn3vyMLwlTEL1OG7dZ1yQAQEHGTGqw22g1oBtp7MQH8Lo3vuRuF/xhBOOkOCfhR84UDDZanAbIKRjX/gwWmsiP68ZuxjtFsYWvRx+IBowpWIiPAgTvY59/t4udoFlU7DTPuchO2rqDcLcNa8AYCQWA4BF7esGJgVFobBRiFgEK0u0x9je6mAawFEgu+auOnagYJ6HHr2clzXmGqAATiA8FWKcv6R8bmDS1dvJ3EgAKrlOcZtiVE9Bux8dKKYhWtYNqQ/4J1j63HjMFBQG24o+lN+vHyXsNoIC/5LCNaUO7mnOCNeApWNc/yy72LktQNxaGk4fHCx7EeriBakPOCdaQX8+m/lnYKJd5bsb2gDgYoABkXeAktPI0iwAFi/pnOcFfho1m+5j27AAKENZ3US8jzwQrX/9lnumfZRujgNKABID5wVjvl+Ek8PVfqSiAn1a7S2lAAsD84Je8xc1iM6cEK0BBir0UKNBvNI1j0GwBFAgu6a/isVM+CdYO3ygrFwoiDdhDXuCA+TkSnby308K0IRcnwefKwsXrgcFS0GhBGpCgw1OwLD79EDWLeSRYfXY50vVAYHMdC6IXt89vXsguKXQSsiZY/eUCKBhnBhAA+zfSK9zhTkJzoL9gCnzlTwoKjhkKFoRH8xSY8kv4uJNgZAydgK8D9E3MMfPm0qXAUbkI6iQ0qtmMYi4U7LIvb+HRfH2HYtXdHuIkNLP5y3zxU0Xf7WIpqAuP5jf1VQsPO7CTIFE8GfjKHzM7BU3h0RwDGrWXV6BZNDKFjgAF+m+ZIbMuQ3g0QIGG7kFOgpGpgpcvflKvtAnO75NlwRSEsKkGyk91BC/Y5pyE1kDj9xzSUzC4tO3n+D/3YAr69jn0Q6D8VE/wfi0wHLQy+Yh8/Zenolj+/oXt1lyMgliwA9d9BBYHlJ9q6nKfuV4rUy5tPQ0FwXnNrkUYU3ALUxC6tZp9yT1htPxUGWGuFAAlcLL1DC5dt/YO9zL+l1smljNi3R5RUHPdF+b3QO2lZtQbsm+gTNuuQAmckIJYA2o0Bb9YCuIn34mPsi9og43XXqqCoyBT9gQogRM8kuDctWsfsN/if0Yo8CfH3ZNvPV73LM2XWoctSspEAV8Chz+SwduHAMS39if+wx1LQcLi5EDX3f84DV57qYrCKUDWs//IEBDhNf7TQEZBxNbDRLgAwdOkwK8yFGQKEvj6L3A9jAaM8RD/VYGCmm2fJ9oAsK5Z8ZovBUD9F7+eyAviBOAdf+O/XzFh7DiCf6TVJnGU8PJTZTAUtDNRABQ/MRW41DuAwUV8SE+JAjdxp/Hay9QUZCpBWZKVn+7XIA1I8Bgf0y+bgoVcKeALDykKzgUE4BQkL7kLmoLEl8RrL9UpoIOEdqZqZUn56Z2QAbsWH8Vuro8jtwvq12NHCqBAt+KVoWBc3lwIBW+YFRiZ+MeXjpiCPdcFKADKT3XLPXfypICv/6LW84gR4NqvH7FJyBSZTMKWzjMhB2NHirfA2uWeJVLgIxS49j3pRndYKfhgZ/A4EQQ7caSA8lPdWkdmN39c4Z0OQAkc+UhACuzaC53mYSmgIreniTYkFAhqL1VRJgUX3P279gMXmnaY+J322YM/iTY8xP8P1F7qUsDs5te3NX9PQVJ+ylLgus9AVCcLW25r74KQ+JIA67rlnsw+biMTBUD9F0nBX5qA2hOY5fNZCliH1b8fCULiSxZAwYnm7ylciStwHygGnpCTKIQtvchHSCjgBc8800zcs/u4v/V+zixNXA5LUWBjiVqWAjBseXETX5IXPO3ZJnpb2RLwxU9ULeirGgVKPnuYOMgABbrNVJh93GwU8JU/VC3oK5UnQ7OUrM8uDFtACvRmm+wWSwFVC/qHpMBF81M7OhTwl0y4d5SjJZaCTPuqAW+byFpQKkYgE4A0WArEkRvMwEgQVOdCDvOkAKi9JGtBL4uggE8YfJCg9nocsjUdWYosQr7wkKwFfaYoYDdFJvitFbZ0BL2FvGWVJBq7j5upzkRCwT1FAeYXcD67JHI7FLTVUZptkisFQO0lWQ6rSMG2ZtgyJ24tJE0fsPu41SwFyR3+MZAUnFMUgHvlI7AUSH32JVE7dFM6F5KloJ6pWTC/ALICV5UC7bBF2ohSKNosBe0CKXhSoyBN2CJpRCmcC8luZTczlaDy5adkEfILRcE9dhKWAqWwxU/fiJLdx21loGCe3+mmKnAVKUgZtvQkTfzRlCK3j5uaAnheYw4UKHtrp8IpCWjsxG1ipqu6Q+c1LhOWaF+NAjZyE1NAWroQ7TEVCwLciJLbxExDgWhSEUrBM3Y2tghZXIH7RJlVSRN/sBElt4mp/X2KPyuYVGSSFbj70F4ID7b8tCG8/Iv9OCBXI2tEyd9fVgoCyaQisgJ3j6RgvBcip0BchBzxaj+TAt4TNqI0PS7BjO3jqkE+r9EhKaB2BV+xk7KRm5iCEa8uHXZKmvizsVOfNYfqxUpK8xpJKbilKHhAKWAdVmEHltt30bIfyEcna+JPzzbpszt4A0UC1OY1Uq4RvbN8oUpBtd0WVEAlJ7Xp+tz5ikYTf6ZZgCIFo5m9KlNKqAzygKLgETs3F7kJvyKc8OrWqISsuIm/Rc2FDKlvVJSKkNWnVlOll1dqFLA++wiNLpZBJETLfiP9Oq0m/rdEtwt5Ba7OvEaLErgeXWKBXYC10DGa1YGMArY+VzYAjYydiG4XMgp05jU6NAMzfbpOBL3GDtzKqLsBOe8i7ZLFTtRcyMmHrMIiZKEXxBHgrTMKrErBAPl6rA6VBIoNzLywib9Dl2MkX2wJyk9lXhAJ03PmOFdblYKZY+zDYqADi8zAnIqdhDUydgo3Rl9soRRoTa2GR1UFVK2RjVMws4p1dGkY7MfVtIF55PND0ib+5E+uFloIBXoagA3qUadg5ldDtQMLY2OhFJlW7DQ0oIZHWlOrBeMKNSiILDTeaoD6uLrzaMsoGCWZxQPQSJ0NNji/YOQFqd6/aVVO8VRlSFMgSdf30VYD9S71nF6IajwX8aX7UH9eYtmi4hx1L0g+qIehQJqo3WviHVjIUCa8tGUUyGMnJKWE5oIgJj1PNqoqpLTWlqfo8FYDTPfKu3E1Hk6BPHYC1qM1tVplXGGHpkAlP4X3I2JaXJ/H2iAULc0BaJrvAKVRVT5NgVpyRtBqgOpe2X8v4JBo141QqC1yAJrOO0B9XCFdfmorZibwfkRM98q9KFiUaZcsdho7CZoaoD6qivmkAK0wYLCHNi2ku1d27m25dklip5GTUIQGwBTU7L+KWTqk1UD1vTEV+dyvHuVnlE1JXdSb2645sJMtP7VtdDOBAdxq4F0b6NhJRSJ7R8J9Jx0vSHtY2zP3QYJbU/08VtDLVb975am6pgsEIM24QuizFPuP4haeoJerQmOqvQXKrRbvOykRkHJk7SvwXYpro/UmDG5Rs9iuCzM9wW6z1WD6vYpjJzFML/24wrAGfZvDfoqNwl9N073yatxTvbVDXUccO4kEINO4wvAB/ETLvlckFW/ThjT1pTpKM5NjxAPQEAFwnMwDO/ddSBDcmurH0kPF2OkdwW6V7ijNuNWz6uY/JsBavslhzkT4DAvCH8XdTEHsxIwHugKmCjButTh2YpBRA0gQX1mRgoBXHzG4qyrETv4t0lO93qLcanHsRBGQ68jaJ/DDZbBfCwi8838r3ncKd+t4T3WmKbx43ynRAM/MQwNIBK+wNlwqVn72RS2uYQ0gj6H7vQYys2haa0UMxLuFzaJ67IT3cjUEUwUS1A3KLIpiJ9Ox1gsaWevfg9pg/1U0ix3cSZCjbtA+ArrvFGnAXIGzhq4uIG2w4TZWI/TvqT/hsZMYjWaTnzoKDkCLNCDHyU8gXhAnAXR3795sly4smhm2FMYIsAQYC0PwuXLDox1vvYSB0UTylzaL7CIn7S/sZ2oHfVvaR59G3ThBwwlq3ymKA/gtwWJwhzgJ1DZ5//yj/QVjMX9VZQM1CAGANIDE1lFcORKZwKPZEgc2n9ugSfiIne7eaH2hC4sEczB4DZCGIlsrR5ZlHa2UNjI9Rh+Lnd6fA9ACibGYeOxEakAX1wAaflji858Ai51ug3PwL2y2CW9xnaDZXS1nqGR6+HDs5KIdgKKwijRWId+9ktCAVpWbKvAZAcdOAri0Ngyw2KltnJQxTDIXPMEyjzJwsU8/WsgsNprtT68BJII3YdcfmoDLAff7/gljFpXeAZ8Mt2BukSegdg8/Wmrf6StpAIEodpJJAq8BBKLYqT7WgOOvpAEkerCT8EHAm/jR9jYMo2V0v54GkICdhHfY7rncb/d7g6uvKgBjdODYKQoTcQ345wDETpEGDKa9rHLBxE6uigb8a+h/JFhH74BpL2c62KvZcQdswAv6v8Dff7t4fPgfasA3vvGNb/zD+A8o1ZV9V99mqgAAAABJRU5ErkJggg==;" vertex="1" parent="1">
          <mxGeometry x="1060.5100000000002" y="790" width="59.31" height="44.83" as="geometry" />
        </mxCell>
        <mxCell id="5NBlNRbaQXi-0YNgzeYX-85" value="" style="rounded=1;whiteSpace=wrap;html=1;shadow=0;" vertex="1" parent="1">
          <mxGeometry x="1045" y="651" width="60.34" height="60" as="geometry" />
        </mxCell>
        <mxCell id="5NBlNRbaQXi-0YNgzeYX-86" value="" style="rounded=1;whiteSpace=wrap;html=1;shadow=0;" vertex="1" parent="1">
          <mxGeometry x="1055" y="642" width="60.34" height="60" as="geometry" />
        </mxCell>
        <mxCell id="5NBlNRbaQXi-0YNgzeYX-87" value="APP" style="rounded=1;whiteSpace=wrap;html=1;shadow=0;" vertex="1" parent="1">
          <mxGeometry x="1065" y="631" width="60.34" height="60" as="geometry" />
        </mxCell>
        <mxCell id="5NBlNRbaQXi-0YNgzeYX-90" value="" style="endArrow=none;dashed=1;html=1;dashPattern=1 3;strokeWidth=2;rounded=0;entryX=0.326;entryY=0;entryDx=0;entryDy=0;entryPerimeter=0;exitX=0.322;exitY=0.993;exitDx=0;exitDy=0;exitPerimeter=0;" edge="1" parent="1" source="5NBlNRbaQXi-0YNgzeYX-70" target="5NBlNRbaQXi-0YNgzeYX-70">
          <mxGeometry width="50" height="50" relative="1" as="geometry">
            <mxPoint x="530" y="811" as="sourcePoint" />
            <mxPoint x="580" y="761" as="targetPoint" />
          </mxGeometry>
        </mxCell>
        <mxCell id="5NBlNRbaQXi-0YNgzeYX-91" value="" style="endArrow=none;dashed=1;html=1;dashPattern=1 3;strokeWidth=2;rounded=0;entryX=0.672;entryY=-0.004;entryDx=0;entryDy=0;entryPerimeter=0;exitX=0.667;exitY=1;exitDx=0;exitDy=0;exitPerimeter=0;" edge="1" parent="1" source="5NBlNRbaQXi-0YNgzeYX-70" target="5NBlNRbaQXi-0YNgzeYX-70">
          <mxGeometry width="50" height="50" relative="1" as="geometry">
            <mxPoint x="848" y="889" as="sourcePoint" />
            <mxPoint x="850" y="611" as="targetPoint" />
          </mxGeometry>
        </mxCell>
        <mxCell id="5NBlNRbaQXi-0YNgzeYX-94" value="阿里云集群" style="text;html=1;align=center;verticalAlign=middle;whiteSpace=wrap;rounded=0;" vertex="1" parent="1">
          <mxGeometry x="685" y="500" width="65" height="30" as="geometry" />
        </mxCell>
        <mxCell id="5NBlNRbaQXi-0YNgzeYX-95" value="腾讯云集群" style="text;html=1;align=center;verticalAlign=middle;whiteSpace=wrap;rounded=0;" vertex="1" parent="1">
          <mxGeometry x="945.34" y="500" width="65" height="30" as="geometry" />
        </mxCell>
        <mxCell id="5NBlNRbaQXi-0YNgzeYX-96" value="香港集群" style="text;html=1;align=center;verticalAlign=middle;whiteSpace=wrap;rounded=0;" vertex="1" parent="1">
          <mxGeometry x="735" y="851" width="65" height="30" as="geometry" />
        </mxCell>
        <mxCell id="5NBlNRbaQXi-0YNgzeYX-97" value="万国集群" style="text;html=1;align=center;verticalAlign=middle;whiteSpace=wrap;rounded=0;" vertex="1" parent="1">
          <mxGeometry x="890" y="851" width="65" height="30" as="geometry" />
        </mxCell>
        <mxCell id="5NBlNRbaQXi-0YNgzeYX-99" value="马驹桥集群" style="text;html=1;align=center;verticalAlign=middle;whiteSpace=wrap;rounded=0;" vertex="1" parent="1">
          <mxGeometry x="1057.67" y="851" width="65" height="30" as="geometry" />
        </mxCell>
        <mxCell id="5NBlNRbaQXi-0YNgzeYX-101" value="燕郊集群" style="text;html=1;align=center;verticalAlign=middle;whiteSpace=wrap;rounded=0;" vertex="1" parent="1">
          <mxGeometry x="1214.8200000000002" y="851" width="65" height="30" as="geometry" />
        </mxCell>
        <mxCell id="5NBlNRbaQXi-0YNgzeYX-103" value="公有云" style="shape=image;verticalLabelPosition=bottom;labelBackgroundColor=default;verticalAlign=top;aspect=fixed;imageAspect=0;image=data:image/png,iVBORw0KGgoAAAANSUhEUgAAAPQAAADOCAMAAAA+EN8HAAAAh1BMVEX///8AAACOjo709PSlpaVRUVHBwcHOzs44ODj4+Pjp6en8/Pzx8fHR0dF0dHTKysra2tqHh4fs7OxBQUGcnJzj4+O7u7teXl6ysrJ/f39mZmYqKiqurq6WlpY0NDSIiIhISEhubm4hISEuLi4XFxdjY2MQEBAcHByfn59WVlYLCwtMTEx5eXlV0afkAAAPzUlEQVR4nN1d13biMBDNgkNoxpTQS4CQhAT+//s2oGLNaCQ3yTa5L7vHMbauymiq/PRUFnrdsLU4N0bLX4wa2/MsepmW9vLy0Q8318vPPwrH7+Vi2Km6ga7RXSx3JF0Vk0b0d4i/vB0TCUvir39hsr8MUhPmeN92q250IXQbp6yU77gselU3PS+ieS7GDKNx1c3Pg9Z7Aco3rIZVU8iK1rog5Ru+H4p2OHFA+Yb5w8jyzsER5Ruuj7F1bxxSvmFTNaFkDF3N7Bj7us/xV+eUb3itmpYN/X1qHp+n49cnbX4QuDSrpmZEK7n17XkjaE27Ujr1p8PZ+ZpiSbSqJGbBNqHdq01oGrDOcHNI+HWjVC5pYW315ZysaAxfrebnvAQOGdGxTNFJ0E/5lO7WYoUe0z6lLHS/jG0dZdtxQsuMqdfe1TW285xdoxo3jE+rkzJu5Bzke17PKBNf3Da8AEyct/ldAZ03wzNDh+0ugjHdvO9iXp+uwQVRjxne+SQbV1ybaNEKWy08aORedXDyaNqpWIOdi2zYwtHDScX2WLnX8Ey1yt0M7LeJ5384e3w+RESbLk5HYkW8oVpTs0m0yM1yjkGpKpHjd2QCsa24t4YCgnWFwoxwh209vGZGLCEPr0kHQivxY/USQjynglsc+g699PSmhc66Ih1Fb8nA27t0h+Pe27ts6JTajmU9JrjeDK8uS32jqCD2MdUa4df+6Wihbl8CxIJL2dNtqPVy6bIsxC3wrxBrav7K+ysRvnELStCRtHf+LqjmOIxas8Vi1gqHY89xEG2ulRFb1JSh9QR5jHfz7cKfyxTbPntvb1JB2bEEri0vFrcmuktKi0nOwONYebDDrugdZe0eugQ34vTmWrjjN5Rk6XVSzm+OgdP5h229ciKK41Emyq5pY8WkDIWwi5dUOjiz73FEw4fjAGGcj/Iv1o5iItjO876ie7pxkwFupCzaOLxrg4S7KBPeHaxsrBh5jqlNnwty/uci2Ik8JjsHxCzILrIpnIs24+D4eTYM0xcF2FF0V0WP85kTkZSwVBpr5I99d8SPQDN5NT8PzovWcNodT8Notl1RkS+BUe5mzK44Gu1PG0tQtN8bkS6V+zNzzUgu1tMtZeR484xZs4nnC7Ny0DKVUWR2aHXPhkSxQsQssEjtdpDgIhkblJls2REzzQ0o8FyAlw1UhJZhnkYvMNBOb202bTLU05I2dvI87XIaUmsxrdTtm1PZbvAUKX6h37bLolpRY5Uu8GSn7M/YIPXtjJKISpNIsaxniWno+SilgB6ym2fu4DGhzyXZ/uPkRH2PLn5sQedJTOvpCzshOyRN2Y1P/wHYbg/5vDM9faO1ScJeqkpJr1UGilI5y/uMnlb9ODHfnNLZ6tXfLQOVkwKv0ROgjB2YxllxnG89l5NwZ9xboYdogYmj4cYkk253CF7K8HXfY6NFe1YbQHqord6Kr1GrvCyu2b+v4oEKrNKSepnF9zgJSq6jcFEz38MsiLljVMLWr7XItc4OPMG/tTtM8aJ5feonMgPv1ni6GmoHV/UqD8oInCyCnCh0EcrloSk/6Zkb8K+UFfpT1+rO9MBDDRhRlUGHyssHHADZTmooilI+XdVjVAssqpQ/EQd11KX6qygQrXgr0nerUw3qgdwAaR9Sn9fzen/+DGdsd0hVVFe5H/IAIQPQvsSVy77G+dF3ZwA0v/mmpdmTud0VtQTaqpnDXrNFKsin9gkksZjRgf2AXxU30jlQ1OR+Dcd2K61y8wG0fG9CGruSanjCRkEgpeymdWEx9qck9x1oWG/iG83u0ksF/ANJ6lfdjq7H0QNuAet9lprsblfdQB+AeTsfWnLYAxz3lh0wJHjRjMq/pHRLQNuijSM+liDXAwNq32uc7lBCBncFgLvyCSe5+vcENoezYLsc3LF83cymJVQHIB8Jtrv8RjK6sw/izNz24PzilzkmjZILPb45smbp784e+xumsfygLcxXkmvPmMGo8g58bR1wTX8iJdRP+sw0db66p7AZXMNfTzD3yIf7IMx02vfEhyiFnf7+BPPFcqdGGzHE2VmJCWpH984qKLj2yBVeLMlDxxSO8vqw6Wri7DIbIUNv59qNAV0nH35Jg7W03t4sdUKE/wqS8ewALq3cVoHDEy+XTzBf3+n0BrUnDbYjkeub6b4R4O10acPXNZAgc3lIixIHfRexQLFBnsA//9osPNoJlCEZuAuZIs/JBrn/3fnH+nHiw1pKJhEhP/LwwlSYeDuhkc3iQfh05s5AScERSspYu3qPEvqNI76C8y9F9p+OzOCMtSLFGHAlxpEWOn06wAuOXhO3/CPWqsV63j+JVdaMOyL22HQ+5I8d2XzxAzlHpCy5CVZKtW+nBLlF996XkCQtu0I5aCySPi03MgYK77Y29E4i8XJbeiMuMrERk5bjoKjA8WceXAgZJMcOmiPcxZE8krOqSAtDh7NQSMuxviq3y6w3ByfNIddnoCWbODgcUWgk7+pSESREYZNKWq5rtcdlu4qXQqGsqqHmCD8VfoXoV3CepqAgxRUgLbcQVf0cC3dD0egDzvu+tQvpvUU3R7EngixM8d61FOWQtMzCBwa16IqCFWBodt8bhlwnBY8jFUIDCiDRsfGEh6SfmlxeQz1BGGjF9muUfXFfQ6gjCqonJ4qz8LUrDiFEWp48APcoMdZFYoo4Q+7eCKexLD5t4MEBQlNRhTkmLXMkQMZej5wA2YAS3bnqh/yTRfQBTu8EfJuiV8FuyC6p94kZB0ZVpADlt/5w9J0reTgrNL9SJpr4GrViRHyO7tSLXDuYEfe11dsiodvlVpqQCiqWGM6Tze9IKPLpuwTkzYPB9ap78Qd8WmPeoabKOp0h576FucmNAOdf5F3V5s+QuEAunzh2Tv3Iv2g5/fkEOHUwtUPkUcy0wixFC8EHbOTKRtBS8Fwj+1Bop32q24VWnZ5HLeOL5PKsQKj6k2cM4uYbhDbyTdycOfqiH8gNnBJa2W32Xu1QLeM7EzFz2B9039+eej9fmRn1sr4eVqAaF+OUOXR6php2MnYh+4Pu3ea6BEyI4PZKNgHb1TmjfBptqDNbscx/Ds1xrqBdidtNpIWeDmMcXH/KspfqxzRrp2rpSz6jN4E/AMaYj+a2Gkk3qaHmql4GPyFVWadNOF2ZyhbAZJYGLGVsWZpqJC3WCYzZsvFP7+Gg4v+6ekPU32VhzfcrGIvhUpcUD2bS/FFQInL7MKUGPqYOHqKOjCNUiwwznGkBn+Da1NTBN5hJi70PamDMDZHO2KK/K0pqdMQpH5fUMvxA8HuzDLSNNB9quCrYmKQxO15obZieJFSB6WfK+dRj2wOUFNbpYiHN5QNcwFzRSNQfQsPZRyaPE3m6SbqFzWU3dc3QbTbS5AJm8zvhWMNQO/2cw6xiHsj701RcslUElQcWLzI5emykuSsPLmC20vVKdwUz45l7tqGjD9H+ChIjxXOie5i2YjKDraRZH0KxSE0mFVPLAVNWtwihrTJcE9Y2uwtoJnyOmhahlTSX+1PiF7T+PQ5sX/pNMJ8I3Y3jZ2A57qNLjAITt6bjVOykua8SzhwmoYisjLBhP+Y9MYNdV0dVHLatKGrpexBTvaCvm3leKbU7BWkmD6CMYEpWKrUKIEXyip21oaVsDULBw/RuY2zCTpr1IhSCzHoh/CfWxu5SZZwajrtToP+GDQKYjSKpxPQaO2k+emBBhURHKI+ikdYaNa9rI2m2OwJrMEnY2klTUqtveqLlcNj0Bxz07XKBKHg46U1cmO4FrIykma0CFgd3zegSxXjmZrYMPOuJ8URCBPsDmIxsmZuVAvYTowLA9HaYFsH2U32NHuh2HrPmWhIfYYv7z8Rg1IixZfvm87ZhAPvJm+GvW7ZgJlv9J/rGT58BnMO32TcpsZQFoZ+o4BE6aWpeNvKlGxoHWxeI1Ic9vUEnrWfQN/Kn0xoOoasdaaR0pzAVbGiSH/2uHWnQyufi2cO9s+6G0Enrh2d4hG16f20dVb68YOFoFGSBCpbeOwpMYD85m/7MdLz2Rrm0NZHmguw4clr0Eo7UpHDTlvUDLjHpb04LYs8yrr6F3r98PtH79OTVQ9l3v/UmLNZ0gSmmJpm98+wnRinLhhXoNqGpnwbXlsdP4HWHixv0PzDzF2hkI73VAAmk2fQGGhkPHWRutS+wYQVLinkZc+vebFoBScye6CwLvzDYsIIpECWMSwJp9mdgwiwNYrQqLPS5XMye5uYtsKguCVKibDAZswfX2J5l9E/ZSS+IB/7TZ3yl6BFz+WCfjXbS7MfAH8a9qzU6qbatS7KFaYdhsJLmUSLwvKBmwpv0VHI3l0lLspKmtmQWT/D/MeD0YHsojACzzdvkmbOSZorlnPhBJR8ZN4BSEV+t89tGmosIoMNGCbtBFWD7CXDR8PltkN820gti+TKzpz6qyQ1MzMATFViU3xDYsZFm5g0IjvDBd13eXQx8WEGcjydm0k5JC2k+k4HZtCCuVQ82v+G2zDaePXm/hTSbIVBtv9RwdsthBZ6LV8tQm0lHhBgb1k9238GaBfRv7lEhc4rNpNuEKOBZbmV8DjgTtgQNfo2KKBlJL4jfTIkerQW4SxQGpNk1aq82DR0X03D18shDjfRuAe6UbCuYcF/qsa1Bv5mBe+NOp89fnL6O6/X7jgcUXZ7X4AreHcE1HOjk78cVhDGTo1r4JV070c2Q5oNquVHbUy5tyVwFUd8DH0V209vwRSIU+eZR+KKAXWspV0JRwLdXbgxF6LRWNiVEQDWRV+1Cpwe7BtapKC5QVVlRZVQfJygBMcHVaIeo2gYKFbukamQi+Kgq3b2vuk/uG0So+ksdQzH+qo9BIy3S8YHJLPrQY6zKBcSwrtV2HvhFRQJjMkLyg9IoUWxQ+2+/iFyVo7o0RX5b7KpHpEVF0VFR0+VhTrXdrWJIxUyRZlJFlR5hSFrmZiqqZl8Exd2fe+gBMnVB8R5MMWtAWh5QofSTvFafkJ0VkrXi/ZdjyXtCJS35KS4wmdFlLWCoE2T92z5e2LJ+m61rhbTMto5nRlMWBD7QpyLiFLTYrbUBrGPSsioy3qDjAvcHmdsMcb7hWs7ZjcpOkl5onLtxaZWn79b7glIhMBAiWfILYtJyTginWEcxyx/uu0ZNJff8ype2nLZLkZB0RZx7Sm7mZ42NDCPUct4VU6rkSSjc1SfrO5l0G6vOlwf9CEqk5liyz90a6mLuXRKBE3ce91OL0G02OU+fuvBEWjaPu0/N1hIUwg1qbmJY0UUV+D8rvYb9c7NFLpd27S2MBISZfUi7+mQQ5UdkKGmmsX+4fcqA4SEt5VXNItCF0AzsxV53TDaPLL5IdAN8LpSKn3lQy7BNcfSGwYqQa/vBZvgXPvpswzRaNEYMjaAVVhCu+Q8bXr89Hmw4CQAAAABJRU5ErkJggg==;imageBackground=none;" vertex="1" parent="1">
          <mxGeometry x="560" y="385" width="78.17" height="66" as="geometry" />
        </mxCell>
        <mxCell id="5NBlNRbaQXi-0YNgzeYX-105" value="私有云" style="shape=image;verticalLabelPosition=bottom;labelBackgroundColor=default;verticalAlign=top;aspect=fixed;imageAspect=0;image=data:image/png,iVBORw0KGgoAAAANSUhEUgAAAPAAAADSCAMAAABD772dAAAAhFBMVEX///8AAAD29vbs7OwiIiLc3NwYGBjv7+8VFRXm5ub5+fn8/Pzp6eny8vJCQkKjo6Orq6vV1dXBwcFzc3NZWVmzs7OdnZ26urp+fn6VlZVSUlKIiIhgYGAQEBBbW1uRkZFqamo3NzctLS3MzMw8PDwgICBKSkpNTU0wMDBvb2+Kiop5eXlI7zMHAAALa0lEQVR4nO1dbWOqOgzeRFRgoDjx3QkyX+b+//+7c+7suCQtpaSlu8fn46a2DzRpkibpw4NFxEGaTbfz9SE57F6TdT4/b4dj34tszsEW4nL6lmweSeyOz8M0bHuGjHgan4801Rts1ovSa3umHAhG614l2y9081HQ9nybwRtNVMn+edGTLG571toonwVCK8f+vWx75loYFTpsryiytmdfF/FUn+0nNsPfpLbD6aAh3w90p522eSgiHO2a071gl/0Kk6RMeOhesHRffcVzProXvDtujIy6vHw/RNllhd1fc9O94NlZfT02QfcDm3HbzGisFOa+T/LVMJuVpe+X5SwbrvJkr/C1RdvcCHhVVnN3shgHxOoMg/FiUiX6uXN7cinfew/bVOoTxOn2IP2BJLXFRA1S8X0Z+gp6J/SHL5IfGTi1JQ8lE5376r/jzyU26czc/OtiIZxkMerX+6m+xMkamZl9fWxFMzxpvZSZUB1MuWeuB5ExudN+I0LvY8s5b12IPN9FAwMpEgmJA6tawPelhqqi4As0duuW9YycVm/U2JONRnSws2UzsyQndWQJtgZ0MLtVCyQgDeEVk3sTkurwVHOjYwUZ3GBcdKQBt+T7/bp4Jqazb6itfsKnltCcc4Q6GBGTeX3iHSN4JQZpSVUH1HJjFzBvSQzD/FTVEBEzWRtwWztE3GjNP0w1CGPoaMRN7xDb09DEQHL4eBaFoXO/uEBDbVhVoxKw6dc1ds4Z4wiQ9UVNaGiDZ9nEcrIcDvDwMzdq5GILpLAb1jujCRiOpOIgg9VoAN6Cc8MHfRHenGyeOiGbcmfcosdCZNHCxC/YggrBnrc9ewu94NzGqHlrrxi94I0VcXpCOUG2FDU6NbPkvWRwXEtBzD580q92xn14gK7iwE4OGzpXsRZXQ+aHlaUVwbjOxMaoV0CP1Eq0J4WP2WIYEY1tw2mCKsuq3wLtrbP5IZGrZjUyDqX4ZH5ngqH3xGqOTQcqavPH5O9gRMvHW3CLWJkeMD79HHBv+RzAA4Fq4wsM6sl3w+MhwBVmeo+Ap6PWD/Og2jIdBwD7Qtf6yVYf7BK52eFC8HyfzQ5HAfime7NCDEW4hVQiGAgwW/gDdoVBC4c8AXDWjO6LIYg6JCYHEwE4L2+m1rRXDt/AJmx+26cA8wJOuYEivmCUUwmvrWSYUGkB3fWQ0XHqZBNBiVkr6RZP9FwelxmPJ+GvhAV1e5YBakOYUr5ZNVfZpayMIW/881qQTWndzNT05VUbLWXmC5NZr5T1hTmAhjpES1lxVcUkcz3rIJpWFsO2VN1MZdP8wGaocbTnU9kzPzHg56KEqLosuX5uqySp/xtHE2xUUN1RoG7aS0epkt1CyJCGSoXU46TGrhyo1cO2VnVB5yxD7JRVjNrvtaazFLTWFxR3kWrx7b3m25nfYjeG2J9t89fqdhlKgiyv3u8t51n65ETldvSUZvOlnLVCxEvGdzJ1r5mKV05lSruSsZjvchQ48WIxokDSH6WCsVB+n+0nN9aC/yaauVSORVaqpnVqFU+igjHJ8RM6fr0i/yUdgQKU53OF0GP0YMjqE4WjBekUxgXFQFQHQ2T3fWDFfgIbB+lsNJ2OZmnAvpXTXTXWtLal6v24+w10xovJjd26myzGzA+UNBPJSAUlwCde3eyvCKE5rZgHoQSTEmOi6KqOw1GNsXCznLCuI8rVO+CPEQt6yRnTF1QSfoGnWvELIRG7QPYH4YC8MPKNcEY5wJnRjAuJWlz4RLGGnjDy9RU6MB0YRTnEqzr/+QmssQpGN0GxZw2jJHsF+vWfegut+gHj81aJj32C8eTTR/0xfqQp4rpnxqdN1WSaZ4xX1a1NjSSYMTkHZTnLwJgei04R8r//Q3VQXT6FJXBIRODLQuqg892/ihoZoHzDxsp9Wq/o8ZnX6FF/10jArInHN7ZBpSd9JBiTc6G3+J2RgrQon4auJcBX8IkxktQvnRjBXZrvRCGmI/rdZb5a5Uu6a9iOb1HDE4qX65+hVbnhi+eQJ7nz8bVneOSNSe+Vr1YF2ctXtQX3Sb76p4DQWD8bVXrEEXSP74HTuc5Qr/CpaBzzxX3PStwyjC9fFCrqT43YAX/kK1IJkQQnhIHuIcfixOY4RdAnvTj40Kzk6yeANsJXUh/FqFUHX14/3IAuvww9fz5XHEpQT7Dd+VDU+QxbqLYuwS3gKPHVPkVQOoWuAVSbjPlfgN2HvHbA4+VzWOC+nwhFM4RizGf5gDXd66CXzqej4XuTeJzQl+N76lCPBEhn8QUqoVUh+yz4KJ8pAPegFL4HxswcYLFKqwVAXj9j/SboAJtB64/R8wemsjQFBpwXdPlmAbaKxcMb/AMXYPqYVBEBBbfhi9mCXfcNvnK+WBYsgJFayDAHmi/iAtbO4QGYf4whFsBBGvaNwYf5VCdQ0wXMtuazs2oRhh/mIwyEpQs3BD7XzBHCQFgG/xrhxzthtpFcJQxcmv+d0gK+wh7aQ3x+iiOEkZYGnhlfsMERwsA5SmD3Qj7HzBHCwCFew2A1X/mkI4QBvzN8AjnbSI4QBkHoIXLM2PwUNwhHQCmPUeSJbV9ygzCMYPkPHvgLW6mKG4RhJqKH2pCxhZPcIAwCa5fmbiAGwpbt4AThEIjw5XXCM2uumIcThGH893LaDsWaK4znBGF42nNRyRFIt+0ypeC5QBj2dy0+N114TM90fOgCYXh4eE0uQD3QeGwPGLWUdoSAH+bRnKhB49U16hTgzxxbcRSiQ6unQAxk/oQcTx1uwn+acMNkl6TpgurP5skJ5ugMpAAf7p4O81nTLiGogd4fzwilljbzEaNzzew7EXrbZq8ZZbV+O/sweXjQ5BVr5KKJ0SRLDSrCm7N+lGrbYC9mvo63gaWLumD/NanCQvy/eoD9p5oj11XYqICpuPkllFCl28hYqR1BPWjGYHAa7236F+wWqZvUyiq/f6AnxyiN92cHTlyWoPNgiStGGKB1JQpWJcCAxFPV2JvEV3o2gsYhPa6zgEkFRKVN7aXUqW4Zo4VN7V2SEC2khonrf+sypu8EZEDd0wGCL07WoZqB1GRsQEVfUVOfUKqTiE1S5UX1crWp+9xYUO+aASornVJIEXVbaK0r6U3xlee0AYTU3YR0iXhA3e5c5+5u8NVeA2gTLqmyzp4g2E43HVLPTwdfDDxtQIWiPAV6YxQayvTHE1UlCb7XIGoBAyCKXyNfr/SVCdqdrNXOX8C3GviY0LNT+lIguLJYmuRJ7MafeFcR5VYJp6IWjUT5/w36heBrjy9ZZcSlPcJeJni7H05hxbT74uL1/XNFc6mWCHtlTu0vVySVr0nC+MNNPq6yNBAxsU64E6TZ6iBmq8KXqiMC2JyOL+vnCwAlW4Q7n4OvX46nKm/loJR2FiqXwILHZ4twX3V+yuGhyqYbv4NwjSpZxVCN24Rr+XqpQqcRtwnXcQI+h1Rxbh0mfK5v2JbF7yVcaGVQxvKWng4TnupW1fcrzk3cJDxvcuoobxLvIuEGLeKvCM5i0805woMzRyJhPBU5jY4RPmjLLkTk05xdInw4p7ytc/3hW+Eq4W7OeVPLzTT87JwfbyKK7RPuHfNzlppt7d2Jg7ScZcMPAGvGFuHwMnY2K9MgtnXlMg1bhJ3BnbA27oTdxJ2wNu6E3cSdsDbuhN3EnbA27oTdxJ2wNu6E3cSdsDbuhN3Ev07YfiaebYBZpr42YDfKtpkJ8GgMbTMTgKnkEKPXNjMBRGdujSFPl2wPhqp4WrurvBI1L+1QB1/vSV7gFuk82HHe7MWKGvfu1AHjHT3MiAoTfAtH74i9wEhtGl/XOgNQvjxLHXy3EhgBeVlJE/BdZGIIzO/YXYX1jZK4ZlEXS6fl9xszJhvzwNa9zTiCbJUn3QZI8lVm5prn/wD07p/USCMCKgAAAABJRU5ErkJggg==;whiteSpace=wrap;" vertex="1" parent="1">
          <mxGeometry x="562.66" y="677.5" width="72.86" height="63.75" as="geometry" />
        </mxCell>
        <mxCell id="5NBlNRbaQXi-0YNgzeYX-106" value="&lt;font style=&quot;font-size: 15px;&quot;&gt;在线集群&lt;/font&gt;" style="text;html=1;align=center;verticalAlign=middle;whiteSpace=wrap;rounded=0;" vertex="1" parent="1">
          <mxGeometry x="885" y="930" width="65" height="30" as="geometry" />
        </mxCell>
        <mxCell id="5NBlNRbaQXi-0YNgzeYX-109" value="" style="endArrow=none;dashed=1;html=1;dashPattern=1 3;strokeWidth=2;rounded=0;entryX=0.5;entryY=1;entryDx=0;entryDy=0;exitX=0.5;exitY=0;exitDx=0;exitDy=0;" edge="1" parent="1" source="5NBlNRbaQXi-0YNgzeYX-106" target="5NBlNRbaQXi-0YNgzeYX-96">
          <mxGeometry width="50" height="50" relative="1" as="geometry">
            <mxPoint x="580" y="990" as="sourcePoint" />
            <mxPoint x="630" y="940" as="targetPoint" />
          </mxGeometry>
        </mxCell>
        <mxCell id="5NBlNRbaQXi-0YNgzeYX-110" value="" style="endArrow=none;dashed=1;html=1;dashPattern=1 3;strokeWidth=2;rounded=0;entryX=0.5;entryY=1;entryDx=0;entryDy=0;exitX=0.5;exitY=0;exitDx=0;exitDy=0;" edge="1" parent="1" source="5NBlNRbaQXi-0YNgzeYX-106" target="5NBlNRbaQXi-0YNgzeYX-97">
          <mxGeometry width="50" height="50" relative="1" as="geometry">
            <mxPoint x="925" y="940" as="sourcePoint" />
            <mxPoint x="778" y="891" as="targetPoint" />
          </mxGeometry>
        </mxCell>
        <mxCell id="5NBlNRbaQXi-0YNgzeYX-111" value="" style="endArrow=none;dashed=1;html=1;dashPattern=1 3;strokeWidth=2;rounded=0;entryX=0.374;entryY=1.033;entryDx=0;entryDy=0;exitX=0.5;exitY=0;exitDx=0;exitDy=0;entryPerimeter=0;" edge="1" parent="1" source="5NBlNRbaQXi-0YNgzeYX-106" target="5NBlNRbaQXi-0YNgzeYX-99">
          <mxGeometry width="50" height="50" relative="1" as="geometry">
            <mxPoint x="935" y="950" as="sourcePoint" />
            <mxPoint x="788" y="901" as="targetPoint" />
          </mxGeometry>
        </mxCell>
        <mxCell id="5NBlNRbaQXi-0YNgzeYX-112" value="&lt;font style=&quot;font-size: 15px;&quot;&gt;离线集群&lt;/font&gt;" style="text;html=1;align=center;verticalAlign=middle;whiteSpace=wrap;rounded=0;" vertex="1" parent="1">
          <mxGeometry x="1210.34" y="930" width="65" height="30" as="geometry" />
        </mxCell>
        <mxCell id="5NBlNRbaQXi-0YNgzeYX-115" value="" style="endArrow=none;dashed=1;html=1;dashPattern=1 3;strokeWidth=2;rounded=0;entryX=0.5;entryY=1;entryDx=0;entryDy=0;exitX=0.5;exitY=0;exitDx=0;exitDy=0;" edge="1" parent="1" source="5NBlNRbaQXi-0YNgzeYX-112" target="5NBlNRbaQXi-0YNgzeYX-32">
          <mxGeometry width="50" height="50" relative="1" as="geometry">
            <mxPoint x="928" y="940" as="sourcePoint" />
            <mxPoint x="933" y="891" as="targetPoint" />
          </mxGeometry>
        </mxCell>
        <mxCell id="5NBlNRbaQXi-0YNgzeYX-137" value="" style="endArrow=none;dashed=1;html=1;dashPattern=1 3;strokeWidth=2;rounded=0;entryX=0.5;entryY=1;entryDx=0;entryDy=0;exitX=0.5;exitY=0;exitDx=0;exitDy=0;" edge="1" parent="1" source="5NBlNRbaQXi-0YNgzeYX-49" target="5NBlNRbaQXi-0YNgzeYX-136">
          <mxGeometry width="50" height="50" relative="1" as="geometry">
            <mxPoint x="941" y="280" as="sourcePoint" />
            <mxPoint x="941" y="530" as="targetPoint" />
            <Array as="points" />
          </mxGeometry>
        </mxCell>
        <mxCell id="5NBlNRbaQXi-0YNgzeYX-136" value="" style="shape=image;html=1;verticalAlign=top;verticalLabelPosition=bottom;labelBackgroundColor=#ffffff;imageAspect=0;aspect=fixed;image=https://cdn2.iconfinder.com/data/icons/boxicons-regular-vol-3/24/bx-refresh-128.png" vertex="1" parent="1">
          <mxGeometry x="922.04" y="461.58" width="38.42" height="38.42" as="geometry" />
        </mxCell>
        <mxCell id="5NBlNRbaQXi-0YNgzeYX-138" value="" style="shape=image;html=1;verticalAlign=top;verticalLabelPosition=bottom;labelBackgroundColor=#ffffff;imageAspect=0;aspect=fixed;image=https://cdn2.iconfinder.com/data/icons/boxicons-regular-vol-3/24/bx-refresh-128.png" vertex="1" parent="1">
          <mxGeometry x="983.5799999999999" y="800" width="38.42" height="38.42" as="geometry" />
        </mxCell>
      </root>
    </mxGraphModel>
  </diagram>
</mxfile>
